<?xml version="1.0" encoding="utf-8"?>
<!-- Generator: Adobe Illustrator 20.1.0, SVG Export Plug-In . SVG Version: 6.00 Build 0)  -->
<svg version="1.1" id="图层_1" xmlns="http://www.w3.org/2000/svg" xmlns:xlink="http://www.w3.org/1999/xlink" x="0px" y="0px"
	 viewBox="0 0 38.4 59.2" style="enable-background:new 0 0 38.4 59.2;" xml:space="preserve">
<style type="text/css">
	.st0{fill:#333333;}
</style>
<g>
	<g>
		<g>
			<g>
				<path class="st0" d="M26.1,39.2c-0.3,0-0.3,0-0.6,0L19,36.6l-6.5,2.7c-0.6,0.3-1.5,0-1.8-0.9l-3-6.2l-6.2-3
					c-0.6-0.3-1.2-1.2-0.9-1.8L3,20.8l-2.4-6.5c-0.3-0.6,0-1.5,0.9-1.8l6.2-3l3-6.2c0.3-0.6,1.2-1.2,1.8-0.9L19,4.8l6.5-2.4
					c0.6-0.3,1.5,0,1.8,0.9l3,6.2l6.2,3c0.6,0.3,1.2,1.2,0.9,1.8L35,20.8l2.4,6.5c0.3,0.6,0,1.5-0.9,1.8l-6.2,3l-3,6.2
					C27,39,26.4,39.2,26.1,39.2z M19,33.6c0.3,0,0.3,0,0.6,0l5.6,2.1l2.7-5.3c0-0.3,0.3-0.6,0.6-0.6l5.6-2.7l-2.1-5.6
					c0-0.3,0-0.6,0-0.9l2.1-5.6l-5.6-2.7c-0.3,0-0.6-0.3-0.6-0.6L25.2,6l-5.6,2.1c-0.3,0-0.6,0-0.9,0L13.1,6l-3,5.3
					c0,0.3-0.3,0.6-0.6,0.6l-5.6,2.7l2.1,5.6c0,0.3,0,0.6,0,0.9l-2.1,5.6l5.6,2.7c0.3,0,0.6,0.3,0.6,0.6l2.7,5.6l5.6-2.1
					C18.7,33.6,18.7,33.6,19,33.6z"/>
			</g>
			<g>
				<g>
					<path class="st0" d="M10.1,32.1L3.6,49.9L9.2,49c0.6,0,1.2,0,1.5,0.6l3.6,4.5l6.5-17.8l2.7,0.9L16,57.4
						c-0.3,0.6-0.6,0.9-1.2,0.9h-0.3c-0.6,0-0.9-0.3-1.2-0.6L8.9,52l-7.1,1.2c-0.6,0-1.2,0-1.5-0.6C0,52.3,0,51.7,0,51.1l7.4-20.2
						L10.1,32.1z"/>
				</g>
				<g>
					<path class="st0" d="M30.6,31.2l7.7,20.2c0.3,0.6,0,1.2-0.3,1.5c-0.3,0.3-0.9,0.6-1.5,0.6l-7.1-1.2L24.9,58
						c-0.3,0.3-0.6,0.6-1.2,0.6h-0.3c-0.6,0-0.9-0.3-1.2-0.9l-4.8-12.5l2.7-1.2l3.6,9.8l3.6-4.5c0.3-0.3,0.9-0.6,1.5-0.6l5.6,0.9
						l-6.5-17.8L30.6,31.2z"/>
				</g>
			</g>
		</g>
	</g>
</g>
</svg>
