<?xml version="1.0" encoding="utf-8"?>
<!-- Generator: Adobe Illustrator 20.1.0, SVG Export Plug-In . SVG Version: 6.00 Build 0)  -->
<svg version="1.1" id="图层_1" xmlns="http://www.w3.org/2000/svg" xmlns:xlink="http://www.w3.org/1999/xlink" x="0px" y="0px"
	 viewBox="0 0 48.1 54.2" style="enable-background:new 0 0 48.1 54.2;" xml:space="preserve">
<style type="text/css">
	.st0{fill:#333333;}
</style>
<g>
	<g>
		<path class="st0" d="M32.8,54.2c-1.2,0-2.1-0.6-2.7-1.8l-6.2-15.1l-7.1,6.2l1.2,3.6c0,0.3,0,0.3,0,0.6c0,1.8-1.5,3-3.3,3l0,0
			c-0.9,0-1.8-0.3-2.4-0.9L4.6,42c-0.9-0.9-1.2-2.4-0.9-3.6c0.6-1.2,1.5-2.1,3-2.1c0.3,0,0.3,0,0.6,0l3.6,1.2l6.2-7.1L1.9,24.2
			C1,23.9,0.4,23,0.1,22.1s0-1.8,0.9-2.7l1.8-1.8c0.6-0.6,1.2-0.9,2.1-0.9l22.9,2.4l7.4-7.4c3-3,7.1-4.8,11.3-5c0.3,0,0.9,0,1.2,0.3
			c0.3,0.3,0.6,0.6,0.3,1.2c-0.3,4.2-2.1,8.3-5,11.3l-7.4,7.4l2.4,22.6c0,0.9-0.3,1.8-0.9,2.4l-1.8,1.8
			C34.3,53.9,33.4,54.2,32.8,54.2z M23.9,34.3c1.2,0,2.4,0.6,2.7,1.8l6.2,14.8l1.5-1.5l-2.4-22.3c0-0.9,0.3-1.8,0.9-2.4l7.4-7.4
			c2.1-2.1,3.6-4.8,4.2-7.4c-3,0.6-5.3,2.1-7.4,4.2l-7.4,7.4c-0.6,0.6-1.2,0.9-2.1,0.9L4.6,20l-1.5,1.8l15.1,5.9
			c0.9,0.3,1.5,1.2,1.8,2.1c0.3,0.9,0,1.8-0.6,2.7l-6.8,8c-0.3,0.6-0.9,0.6-1.5,0.6l-4.5-1.8c0,0,0,0,0,0.3v0.3l7.7,7.7
			c0.3,0,0.3,0,0.6,0l-1.2-4.2c-0.3-0.6,0-1.2,0.6-1.5l8-6.8C22.4,34.6,23.3,34.3,23.9,34.3z"/>
	</g>
</g>
</svg>
