<?xml version="1.0" encoding="utf-8"?>
<!-- Generator: Adobe Illustrator 20.1.0, SVG Export Plug-In . SVG Version: 6.00 Build 0)  -->
<svg version="1.1" id="图层_1" xmlns="http://www.w3.org/2000/svg" xmlns:xlink="http://www.w3.org/1999/xlink" x="0px" y="0px"
	 viewBox="0 0 47.3 38.4" style="enable-background:new 0 0 47.3 38.4;" xml:space="preserve">
<style type="text/css">
	.st0{fill:#333333;}
</style>
<g>
	<g>
		<path class="st0" d="M23.5,37.7c-0.3,0-0.6,0-0.9,0C20,37.1,10.5,34.1,3,22.5c-3.6-5.3-3.3-12.5,0.9-17.2c2.7-3,6.5-4.8,10.4-4.8
			c3.3,0,6.5,1.2,9.2,3.3c2.7-2.1,5.6-3.3,9.2-3.3c4.2,0,7.7,1.8,10.4,4.8c4.2,4.5,4.5,11.6,0.9,17.2c-7.4,11.6-16.9,14.6-19.6,15.1
			C24.1,37.4,23.8,37.7,23.5,37.7z M14.3,3.2c-3.3,0-6.2,1.5-8.3,3.9c-3.3,3.6-3.6,9.2-0.6,13.7c6.8,10.7,15.4,13.4,17.8,14h0.3h0.3
			c2.4-0.6,11-3.3,17.8-14c2.7-4.5,2.7-10.1-0.6-13.7c-2.1-2.4-5-3.9-8.3-3.9c-3,0-5.6,1.2-7.7,3.3l-0.3,0.3c-0.6,0.6-1.5,0.6-2.1,0
			l-0.3-0.3C20.3,4.4,17.3,3.2,14.3,3.2z"/>
	</g>
</g>
</svg>
