<?xml version="1.0" encoding="utf-8"?>
<!-- Generator: Adobe Illustrator 20.1.0, SVG Export Plug-In . SVG Version: 6.00 Build 0)  -->
<svg version="1.1" id="图层_1" xmlns="http://www.w3.org/2000/svg" xmlns:xlink="http://www.w3.org/1999/xlink" x="0px" y="0px"
	 viewBox="0 0 53.2 51.8" style="enable-background:new 0 0 53.2 51.8;" xml:space="preserve">
<style type="text/css">
	.st0{fill:#333333;}
</style>
<g>
	<g>
		<g>
			<path class="st0" d="M29.7,46.9L29.7,46.9c-2.4,0-3.9-0.9-4.2-0.9c-0.3,0-0.3-0.3-0.6-0.6c0-0.3-1.2-1.8-0.9-4.5
				c-3-0.3-5.6-2.1-8.3-4.5c-2.7-2.7-4.2-5.3-4.5-8.3c-2.7,0-4.5-0.9-4.5-0.9c-0.3,0-0.3-0.3-0.6-0.6c-0.3-0.3-4.2-6.8,5-16
				c3.9-3.9,8-4.5,11.3-1.8l0,0C23.2,8.3,23.5,8,23.7,8C31.5,1.7,38,0.5,42.2,0.5c4.8,0,7.4,1.8,7.4,1.8c0.3,0,0.3,0.3,0.6,0.6
				c0.3,0.3,6.2,10.7-5.9,25.8l0,0c-0.3,0.3-0.6,0.6-0.9,1.2l0,0c2.7,3.6,2.1,7.4-1.8,11.3C36.5,45.7,32.4,46.9,29.7,46.9z
				 M27.3,43.3c0.3,0.3,1.2,0.3,2.4,0.3l0,0c2.1,0,5.6-0.9,9.8-5c3.9-3.9,2.4-6.5,0.9-8c-0.9-0.9-0.3-2.1,0.9-3
				c0.3-0.3,0.6-0.6,0.6-0.6s0-0.3,0.3-0.3C52,14.5,49,6.2,48.1,4.4c-0.6-0.3-2.7-1.2-5.6-1.2c-3.6,0-9.5,1.2-16.6,7.1
				c0,0-0.3,0-0.3,0.3c-0.3,0-0.6,0.3-0.6,0.6c-1.2,0.9-1.5,1.2-2.1,1.2l0,0c-0.3,0-0.9-0.3-1.2-0.3c-2.4-2.4-5-2.1-8,0.9
				c-6.2,6.2-5.3,10.7-4.8,11.9c0.6,0.3,2.1,0.6,3.9,0.3c0.3,0,0.9,0,1.2,0.3c0.3,0.3,0.6,0.6,0.6,1.2c0,2.7,1.2,5.3,3.9,7.7
				c2.4,2.4,5,3.9,7.7,3.9c0.3,0,0.9,0.3,1.2,0.6c0.3,0.3,0.3,0.9,0.3,1.2C26.7,41.5,27,42.7,27.3,43.3z"/>
		</g>
		<g>
			<path class="st0" d="M4.4,49c-0.3,0-0.9,0-1.2-0.3c-0.6-0.6-0.6-1.5,0-2.1l7.4-7.4c0.6-0.6,1.5-0.6,2.1,0s0.6,1.5,0,2.1l-7.1,7.1
				C5.3,48.7,5,49,4.4,49z"/>
		</g>
		<g>
			<path class="st0" d="M2.7,39.5c-0.3,0-0.9,0-1.2-0.3c-0.6-0.6-0.6-1.5,0-2.1l3.9-3.9c0.6-0.6,1.5-0.6,2.1,0s0.6,1.5,0,2.1
				l-3.9,3.9C3.6,39.5,3,39.5,2.7,39.5z"/>
		</g>
		<g>
			<path class="st0" d="M13.9,50.7c-0.3,0-0.9,0-1.2-0.3c-0.6-0.6-0.6-1.5,0-2.1l3.9-3.9c0.6-0.6,1.5-0.6,2.1,0s0.6,1.5,0,2.1
				l-3.9,3.9C14.5,50.7,14.2,50.7,13.9,50.7z"/>
		</g>
		<g>
			<path class="st0" d="M32.7,26.1c-1.8,0-3.6-0.6-4.8-2.1c-2.7-2.7-2.7-6.8,0-9.5c2.7-2.7,7.1-2.7,9.5,0c1.2,1.2,2.1,3,2.1,4.8
				s-0.6,3.6-2.1,4.8C36.2,25.2,34.4,26.1,32.7,26.1z M32.7,15.4c-0.9,0-2.1,0.3-2.7,1.2c-1.5,1.5-1.5,3.9,0,5.3
				c1.5,1.5,3.9,1.5,5.3,0c0.6-0.6,1.2-1.8,1.2-2.7s-0.3-2.1-1.2-2.7C34.4,16,33.8,15.4,32.7,15.4z"/>
		</g>
	</g>
</g>
</svg>
