<?xml version="1.0" encoding="utf-8"?>
<!-- Generator: Adobe Illustrator 20.1.0, SVG Export Plug-In . SVG Version: 6.00 Build 0)  -->
<svg version="1.1" id="图层_1" xmlns="http://www.w3.org/2000/svg" xmlns:xlink="http://www.w3.org/1999/xlink" x="0px" y="0px"
	 viewBox="0 0 51.4 41" style="enable-background:new 0 0 51.4 41;" xml:space="preserve">
<style type="text/css">
	.st0{fill:#333333;}
</style>
<g>
	<g>
		<g>
			<path class="st0" d="M25.6,40.9c-0.6,0-1.2-0.3-1.8-0.6L0.7,17.1c-0.6-0.6-0.6-1.5,0-2.1L12,0.8c0.3-0.3,0.6-0.6,1.2-0.6h25.2
				c0.6,0,0.9,0.3,1.2,0.6L50.9,15c0.6,0.6,0.3,1.5,0,2.1L27.4,40.3C26.8,40.9,26.2,40.9,25.6,40.9z M3.9,15.9l21.7,21.7l21.7-21.7
				L37.5,3.4H13.7L3.9,15.9z"/>
		</g>
		<g>
			<rect x="1.9" y="14.7" class="st0" width="47.5" height="3"/>
		</g>
		<g>
			<path class="st0" d="M23.2,2.6l-3.9,14l6.2,18.7l6.2-18.7L28,2.6l3-0.9l4.2,14.6c0,0.3,0,0.6,0,0.9l-6.8,20.8
				c-0.3,0.9-1.2,1.8-2.4,1.8c-1.2,0-2.1-0.6-2.4-1.8l-6.8-20.8c0-0.3,0-0.6,0-0.9l4.2-14.6L23.2,2.6z"/>
		</g>
	</g>
</g>
</svg>
