<svg id="Слой_1" data-name="Слой 1" xmlns="http://www.w3.org/2000/svg" viewBox="0 0 58 58"><defs><style>.cls-1{fill:#6789fc;}.cls-2{fill:#fff;}</style></defs><title>ico</title><circle class="cls-1" cx="29" cy="29" r="29"/><path class="cls-2" d="M41.11,40.07a2.22,2.22,0,0,1-1.73-.69L36.61,37H20.35A6.13,6.13,0,0,1,14.3,30.9V24a6.13,6.13,0,0,1,6.05-6.05h17.3A6.13,6.13,0,0,1,43.7,24V37.48A2.66,2.66,0,0,1,41.11,40.07ZM20.35,19.66A4.28,4.28,0,0,0,16,24V30.9a4.28,4.28,0,0,0,4.32,4.32H37a.64.64,0,0,1,.52.17l3.11,2.77A.82.82,0,0,0,42,37.48V24a4.28,4.28,0,0,0-4.32-4.32Z"/><path class="cls-2" d="M22.08,29a1.22,1.22,0,0,1-.86-2.08,1.36,1.36,0,0,1,1.9,0,1.25,1.25,0,0,1,0,1.73A2.46,2.46,0,0,1,22.08,29Z"/><path class="cls-2" d="M29,29a1.22,1.22,0,0,1-.86-2.08,1.36,1.36,0,0,1,1.9,0,1.25,1.25,0,0,1,0,1.73A2.46,2.46,0,0,1,29,29Z"/><path class="cls-2" d="M35.92,29a1.22,1.22,0,0,1-.86-2.08,1.36,1.36,0,0,1,1.9,0,1.25,1.25,0,0,1,0,1.73A2.46,2.46,0,0,1,35.92,29Z"/></svg>