<svg id="Слой_1" data-name="Слой 1" xmlns="http://www.w3.org/2000/svg" viewBox="0 0 58 58"><defs><style>.cls-1{fill:#6789fc;}.cls-2{fill:#fff;}</style></defs><title>ico</title><circle class="cls-1" cx="29" cy="29" r="29"/><path class="cls-2" d="M35.92,36.8h0a1,1,0,0,1-.69-.17L19.14,32A4.26,4.26,0,0,1,16,27.81V24.35a4.26,4.26,0,0,1,3.11-4.15l16.09-4.67a2.63,2.63,0,0,1,3.29,2.42V34a3.63,3.63,0,0,1-.69,1.9A2.2,2.2,0,0,1,35.92,36.8Zm0-19.55h-.17L19.66,21.93a2.77,2.77,0,0,0-1.9,2.42v3.46a2.28,2.28,0,0,0,1.9,2.42L35.75,34.9a1.3,1.3,0,0,0,.86-.17c.17-.17.17-.35.17-.69V17.95A.79.79,0,0,0,35.92,17.26Z"/><path class="cls-2" d="M37.13,20.89a.77.77,0,0,1,.86,0l3.46,1.73a.93.93,0,0,1,.52.69V28.5c0,.35-.17.69-.52.69L38,30.92c-.17,0-.17.17-.35.17a.64.64,0,0,1-.52-.17ZM38.51,23v5.88L40.24,28V23.83Z"/><path class="cls-2" d="M21.73,31.44l2.94,12.11c.17.52-.17.86-.69,1h-.17a1.15,1.15,0,0,1-.86-.69L20,31.79Z"/></svg>