<svg id="Слой_1" data-name="Слой 1" xmlns="http://www.w3.org/2000/svg" viewBox="0 0 58 58"><defs><style>.cls-1{fill:#6789fc;}.cls-2{fill:#fff;}</style></defs><title>ico</title><circle class="cls-1" cx="29" cy="29" r="29"/><path class="cls-2" d="M29,31.42a4.89,4.89,0,0,1-4.67-5.19A4.89,4.89,0,0,1,29,21a4.89,4.89,0,0,1,4.67,5.19A4.89,4.89,0,0,1,29,31.42Zm0-8.65a3.28,3.28,0,0,0-2.94,3.46c0,1.9,1.21,3.46,2.94,3.46s2.94-1.56,2.94-3.46A3.28,3.28,0,0,0,29,22.77Z"/><path class="cls-2" d="M30.9,29.17h.35a5,5,0,0,1,5,5v3.63a.86.86,0,0,1-1.73,0V34.19a3.4,3.4,0,0,0-3.29-3.29H30.9Z"/><path class="cls-2" d="M27.1,30.9h-.35a3.4,3.4,0,0,0-3.29,3.29v3.63a.86.86,0,0,1-1.73,0V34.19a5,5,0,0,1,5-5h.35Z"/><path class="cls-2" d="M38.51,28a4.22,4.22,0,0,1-4-4.32,4,4,0,1,1,8,0A4.22,4.22,0,0,1,38.51,28Zm0-6.92a2.62,2.62,0,0,0,0,5.19,2.62,2.62,0,0,0,0-5.19Z"/><path class="cls-2" d="M40.07,25.89h.35A4.21,4.21,0,0,1,44.57,30V33a.86.86,0,1,1-1.73,0V30a2.36,2.36,0,0,0-2.42-2.42h-.35Z"/><path class="cls-2" d="M37,27.62h-.35A2.36,2.36,0,0,0,34.19,30a.86.86,0,0,1-1.73,0,4.21,4.21,0,0,1,4.15-4.15H37Z"/><path class="cls-2" d="M19.49,28a4.22,4.22,0,0,1-4-4.32,4.11,4.11,0,0,1,4-4.32,4.11,4.11,0,0,1,4,4.32A4.22,4.22,0,0,1,19.49,28Zm0-6.92a2.62,2.62,0,0,0,0,5.19,2.62,2.62,0,0,0,0-5.19Z"/><path class="cls-2" d="M21,25.89h.35A4.21,4.21,0,0,1,25.54,30a.86.86,0,0,1-1.73,0,2.36,2.36,0,0,0-2.42-2.42H21Z"/><path class="cls-2" d="M17.93,27.62h-.35A2.36,2.36,0,0,0,15.16,30V33a.86.86,0,1,1-1.73,0V30a4.21,4.21,0,0,1,4.15-4.15h.35Z"/></svg>