<svg id="Слой_1" data-name="Слой 1" xmlns="http://www.w3.org/2000/svg" viewBox="0 0 58 58"><defs><style>.cls-1{fill:#6789fc;}.cls-2{fill:#fff;}</style></defs><title>ico</title><circle class="cls-1" cx="29" cy="29" r="29"/><path class="cls-2" d="M29.69,33.76H28.48a2.46,2.46,0,0,1-2.25-1.56L25.89,31a1.52,1.52,0,0,1,.17-1.21,1.23,1.23,0,0,1,1-.52h4a1.23,1.23,0,0,1,1,.52A1.52,1.52,0,0,1,32.29,31l-.35,1.21A2.56,2.56,0,0,1,29.69,33.76ZM27.62,31l.17.69c0,.17.35.35.52.35h1.21c.17,0,.52-.17.52-.35l.17-.69Z"/><path class="cls-2" d="M30.56,32.72l1.73,7.61c0,.35,0,.69-.35.86l-2.42,1.56a.86.86,0,0,1-1,0l-2.42-1.56a.63.63,0,0,1-.35-.86l1.73-7.61Zm-2.94,7.61,1.38,1,1.38-1L29,34.1Z"/><path class="cls-2" d="M29,30.64c-3.81,0-6.92-3.46-6.92-7.78s3.11-7.78,6.92-7.78,6.92,3.46,6.92,7.78S32.81,30.64,29,30.64Zm0-13.84c-2.94,0-5.19,2.77-5.19,6.05s2.25,6.05,5.19,6.05,5.19-2.77,5.19-6.05S31.94,16.81,29,16.81Z"/><path class="cls-2" d="M39.38,42.41a.82.82,0,0,1-.86-.86V35.66a5.83,5.83,0,0,0-5.88-5.88h-.69a.86.86,0,0,1,0-1.73h.69a7.68,7.68,0,0,1,7.61,7.61v5.88A.82.82,0,0,1,39.38,42.41Z"/><path class="cls-2" d="M18.62,42.41a.82.82,0,0,1-.86-.86V35.66A7.68,7.68,0,0,1,25.37,28h.69a.86.86,0,0,1,0,1.73h-.69a5.83,5.83,0,0,0-5.88,5.88v5.88A.82.82,0,0,1,18.62,42.41Z"/></svg>