<svg id="Слой_1" data-name="Слой 1" xmlns="http://www.w3.org/2000/svg" viewBox="0 0 58 58"><defs><style>.cls-1{fill:#6789fc;}.cls-2{fill:#fff;}</style></defs><title>ico</title><circle class="cls-1" cx="29" cy="29" r="29"/><path class="cls-2" d="M38.08,39.47H19.75a4.65,4.65,0,0,1-4.67-4.67V23.21a4.65,4.65,0,0,1,4.67-4.67H38.25a4.65,4.65,0,0,1,4.67,4.67V34.79A4.92,4.92,0,0,1,38.08,39.47Zm-18.34-19a3,3,0,0,0-2.94,2.94V35a3,3,0,0,0,2.94,2.94H38.25A3,3,0,0,0,41.19,35V23.38a3,3,0,0,0-2.94-2.94Z"/><path class="cls-2" d="M42.41,24.59,31.68,30.82a4.72,4.72,0,0,1-2.77.69,5.08,5.08,0,0,1-2.77-.69L15.42,24.59,16.29,23,27,29.26a4.43,4.43,0,0,0,3.63,0L41.37,23Z"/><rect class="cls-2" x="14.18" y="32.06" width="11.76" height="1.73" transform="translate(-18.13 27.65) rotate(-50.78)"/><rect class="cls-2" x="36.98" y="27.08" width="1.73" height="11.76" transform="translate(-12.32 31.37) rotate(-39.23)"/></svg>