<svg id="Слой_1" data-name="Слой 1" xmlns="http://www.w3.org/2000/svg" viewBox="0 0 58 58"><defs><style>.cls-1{fill:#6789fc;}.cls-2{fill:#fff;}</style></defs><title>ico</title><circle class="cls-1" cx="29" cy="29" r="29"/><path class="cls-2" d="M38.43,26.06a1,1,0,0,1-.69-.17L32.2,20.35C32,20.18,32,20,32,19.66s.17-.52.17-.69l2.25-2.25a3.34,3.34,0,0,1,4.84,0l1.9,1.9a3.34,3.34,0,0,1,0,4.84l-2.25,2.25C38.95,26.06,38.6,26.06,38.43,26.06Zm-4.32-6.4L38.43,24l1.73-1.73a1.67,1.67,0,0,0,0-2.42l-1.9-1.9a1.67,1.67,0,0,0-2.42,0Z"/><path class="cls-2" d="M16.63,42.32c-.17,0-.52-.17-.69-.17a1.56,1.56,0,0,1-.17-.86l1-6.57c0-.17.17-.35.17-.52L32.2,19a.84.84,0,0,1,1.21,0l5.54,5.54c.17.17.17.35.17.69s-.17.52-.17.69L23.72,41.11a.64.64,0,0,1-.52.17l-6.57,1Zm1.9-7.09-.86,5.19,5.19-.86L37.22,25.19l-4.32-4.32Z"/><path class="cls-2" d="M24.76,39.72a1,1,0,0,1-.69-.17L18.53,34a.86.86,0,1,1,1.21-1.21l5.54,5.54a.84.84,0,0,1,0,1.21A.76.76,0,0,1,24.76,39.72Z"/></svg>