<?xml version="1.0" encoding="utf-8"?>
<!-- Generator: Adobe Illustrator 20.1.0, SVG Export Plug-In . SVG Version: 6.00 Build 0)  -->
<svg version="1.1" xmlns="http://www.w3.org/2000/svg" xmlns:xlink="http://www.w3.org/1999/xlink" x="0px" y="0px"
	 viewBox="0 0 79.6 40.1" style="enable-background:new 0 0 79.6 40.1;" xml:space="preserve">
<style type="text/css">
	.st0{fill-rule:evenodd;clip-rule:evenodd;fill:#7BB967;}
	.st1{fill-rule:evenodd;clip-rule:evenodd;fill:#46433E;}
	.st2{fill-rule:evenodd;clip-rule:evenodd;fill:#CCCCCC;}
	.st3{fill-rule:evenodd;clip-rule:evenodd;fill:none;stroke:#C9C8C8;stroke-width:0.216;stroke-miterlimit:22.9256;}
	.st4{fill-rule:evenodd;clip-rule:evenodd;fill:#7BB967;stroke:#C9C8C8;stroke-width:0.5669;stroke-miterlimit:22.9256;}
	.st5{fill-rule:evenodd;clip-rule:evenodd;fill:none;stroke:#C9C8C8;stroke-width:0.5669;stroke-miterlimit:22.9256;}
	.st6{fill-rule:evenodd;clip-rule:evenodd;fill:#272624;stroke:#C9C8C8;stroke-width:0.5669;stroke-miterlimit:22.9256;}
	.st7{fill-rule:evenodd;clip-rule:evenodd;fill:#FFFFFF;}
	.st8{fill-rule:evenodd;clip-rule:evenodd;fill:#272624;}
	.st9{fill-rule:evenodd;clip-rule:evenodd;fill:#E2E2E2;}
	.st10{fill-rule:evenodd;clip-rule:evenodd;fill:#979695;}
</style>
<g id="Направляющие_для_монтажной_области">
</g>
<g id="Слой_1">
	<path class="st0" d="M23.4,27.4l-0.6-1.8h0c0,0.4,0,0.6,0,0.7v1.1h-0.4v-2.3h0.7l0.5,1.8h0l0.6-1.8h0.7v2.3h-0.5v-1.1
		c0-0.1,0-0.1,0-0.2c0-0.1,0-0.2,0-0.5h0l-0.6,1.8H23.4L23.4,27.4z M20.7,25.7c0,0.2-0.1,0.4-0.2,0.6c-0.2,0.1-0.4,0.2-0.7,0.2h-0.2
		v0.8h-0.5V25h0.7c0.3,0,0.5,0.1,0.6,0.2C20.6,25.3,20.7,25.5,20.7,25.7L20.7,25.7z M19.6,26.1h0.2c0.2,0,0.3,0,0.3-0.1
		c0.1-0.1,0.1-0.1,0.1-0.3c0-0.1,0-0.2-0.1-0.3c-0.1-0.1-0.2-0.1-0.3-0.1h-0.2V26.1L19.6,26.1z M18.1,27.3h-0.5v-1.9H17V25h1.7v0.4
		h-0.6V27.3L18.1,27.3z M16.6,27.3h-0.5v-1h-0.9v1h-0.5V25h0.5v0.9h0.9V25h0.5V27.3L16.6,27.3z M14.3,27.3h-1.3V25h1.3v0.4h-0.8v0.5
		h0.8v0.4h-0.8v0.6h0.8V27.3L14.3,27.3z M12.2,26.9h0.3V28h-0.5v-0.7h-1.7V25h0.5v1.9h0.8V25h0.5V26.9L12.2,26.9z M76.9,25h0.4v1.1
		l0,0.3l0,0.3h0l1.1-1.7H79v2.3h-0.4v-1.1c0-0.1,0-0.4,0-0.7h0l-1.1,1.8h-0.6V25L76.9,25z M74.3,25h0.4v1.1l0,0.3l0,0.3h0l1.1-1.7
		h0.6v2.3h-0.4v-1.1c0-0.1,0-0.4,0-0.7h0l-1.1,1.8h-0.6V25L74.3,25z M73.9,25v0.4h-1v1.9h-0.5V25H73.9L73.9,25z M70.3,26.2
		c0,0.3,0,0.5,0.1,0.6c0.1,0.1,0.2,0.2,0.4,0.2c0.4,0,0.6-0.3,0.6-0.8c0-0.5-0.2-0.8-0.6-0.8c-0.2,0-0.3,0.1-0.4,0.2
		C70.4,25.7,70.3,25.9,70.3,26.2L70.3,26.2z M72,26.2c0,0.4-0.1,0.7-0.3,0.9c-0.2,0.2-0.5,0.3-0.8,0.3c-0.4,0-0.6-0.1-0.8-0.3
		c-0.2-0.2-0.3-0.5-0.3-0.9c0-0.4,0.1-0.7,0.3-0.9c0.2-0.2,0.5-0.3,0.8-0.3s0.6,0.1,0.8,0.3C71.9,25.5,72,25.8,72,26.2L72,26.2z
		 M69.3,27.3h-0.5v-1.9h-0.6l0,0.2c-0.1,0.5-0.1,0.9-0.2,1.1c0,0.2-0.1,0.4-0.2,0.5c-0.1,0.1-0.2,0.1-0.4,0.1c-0.1,0-0.2,0-0.2,0
		v-0.4c0.1,0,0.1,0,0.2,0c0.1,0,0.1,0,0.1-0.1c0-0.1,0.1-0.1,0.1-0.3c0-0.1,0.1-0.4,0.1-0.7c0-0.3,0.1-0.6,0.1-0.9h1.5V27.3
		L69.3,27.3z M65.4,26.2c0,0.3,0,0.5,0.1,0.6c0.1,0.1,0.2,0.2,0.4,0.2c0.4,0,0.6-0.3,0.6-0.8c0-0.5-0.2-0.8-0.6-0.8
		c-0.2,0-0.3,0.1-0.4,0.2C65.4,25.7,65.4,25.9,65.4,26.2L65.4,26.2z M67,26.2c0,0.4-0.1,0.7-0.3,0.9c-0.2,0.2-0.5,0.3-0.8,0.3
		c-0.4,0-0.6-0.1-0.8-0.3c-0.2-0.2-0.3-0.5-0.3-0.9c0-0.4,0.1-0.7,0.3-0.9c0.2-0.2,0.5-0.3,0.8-0.3c0.4,0,0.6,0.1,0.8,0.3
		C67,25.5,67,25.8,67,26.2L67,26.2z M64,27.3h-0.5v-1.9h-0.6V25h1.7v0.4H64V27.3L64,27.3z M62.6,27.3h-1.3V25h1.3v0.4h-0.8v0.5h0.8
		v0.4h-0.8v0.6h0.8V27.3L62.6,27.3z M59.2,27.3l-0.6-1.8h0c0,0.4,0,0.6,0,0.7v1.1h-0.4V25h0.7l0.5,1.8h0L60,25h0.7v2.3h-0.5v-1.1
		c0-0.1,0-0.1,0-0.2c0-0.1,0-0.2,0-0.5h0l-0.6,1.8H59.2L59.2,27.3z M57.2,25.4c-0.2,0-0.3,0.1-0.4,0.2c-0.1,0.1-0.2,0.3-0.2,0.6
		c0,0.5,0.2,0.8,0.6,0.8c0.2,0,0.4,0,0.6-0.1v0.4c-0.2,0.1-0.4,0.1-0.6,0.1c-0.3,0-0.6-0.1-0.8-0.3c-0.2-0.2-0.3-0.5-0.3-0.9
		c0-0.2,0-0.4,0.1-0.6c0.1-0.2,0.2-0.3,0.4-0.4C56.8,25,57,25,57.2,25c0.2,0,0.4,0.1,0.7,0.2l-0.2,0.4c-0.1,0-0.2-0.1-0.3-0.1
		C57.3,25.4,57.3,25.4,57.2,25.4L57.2,25.4z M54,26.2c0,0.3,0,0.5,0.1,0.6c0.1,0.1,0.2,0.2,0.4,0.2c0.4,0,0.6-0.3,0.6-0.8
		c0-0.5-0.2-0.8-0.6-0.8c-0.2,0-0.3,0.1-0.4,0.2C54.1,25.7,54,25.9,54,26.2L54,26.2z M55.7,26.2c0,0.4-0.1,0.7-0.3,0.9
		c-0.2,0.2-0.5,0.3-0.8,0.3c-0.4,0-0.6-0.1-0.8-0.3c-0.2-0.2-0.3-0.5-0.3-0.9c0-0.4,0.1-0.7,0.3-0.9c0.2-0.2,0.5-0.3,0.8-0.3
		c0.4,0,0.6,0.1,0.8,0.3C55.6,25.5,55.7,25.8,55.7,26.2L55.7,26.2z M53.3,27.3h-0.6L52,26.2v1.2h-0.5V25H52v1.1l0.8-1.1h0.5
		l-0.8,1.1L53.3,27.3L53.3,27.3z M65.8,22.1H55.4v-1.4h10.4v-1.4H55.4l0.1-1.4l10.4,0c0-0.3-0.1-0.6-0.3-0.9
		c-0.3-0.3-0.6-0.5-1.1-0.5h-8.3c2-4.8,3.1-10.1,2.9-16C43.5-0.1,31.6,8.4,25.3,19.1v-1.2c0-0.3-0.1-0.6-0.3-0.9
		c-0.3-0.3-0.6-0.5-1.1-0.5h-9c-0.3,0-0.6,0.1-0.9,0.3c-0.3,0.3-0.5,0.6-0.5,1.1v4.2c0,0.3,0.1,0.6,0.3,0.9c0.3,0.3,0.6,0.5,1.1,0.5
		H23c-2.3,5.2-3.3,10.8-2.9,16c9.8,0.8,21-3.7,28.9-12.1h-0.4v-1.1c0-0.1,0-0.4,0-0.7h0l-1.1,1.8h-0.6v-2.3h0.4v1.1l0,0.3l0,0.3h0
		l1.1-1.8H49v2.3c1.9-2,3.6-4.3,5-6.7v2.8h10.4c0.3,0,0.6-0.1,0.9-0.3C65.6,22.9,65.8,22.5,65.8,22.1L65.8,22.1z M26.8,27.4h-1.3
		v-2.3h1.3v0.4H26V26h0.8v0.4H26V27h0.8V27.4L26.8,27.4z M27,27h0.2c0.2-0.3,0.3-0.6,0.4-0.9c0.1-0.3,0.2-0.6,0.2-1h1.3V27h0.3V28
		h-0.5v-0.7h-1.4V28H27V27L27,27z M28.1,25.5h0.5V27h-0.9c0.1-0.2,0.2-0.5,0.3-0.7C28,26,28.1,25.7,28.1,25.5L28.1,25.5z M29.8,25.1
		h0.4v1.1l0,0.3l0,0.3h0l1.1-1.8h0.6v2.3h-0.4v-1.1c0-0.1,0-0.4,0-0.7h0l-1.1,1.8h-0.6V25.1L29.8,25.1z M34.3,27h0.3V28h-0.5v-0.7
		h-1.7v-2.3h0.5V27h0.9v-1.9h0.5V27L34.3,27z M35,25.1h0.4v1.1l0,0.3l0,0.3h0l1.1-1.8H37v2.3h-0.4v-1.1c0-0.1,0-0.4,0-0.7h0
		l-1.1,1.8H35V25.1L35,25.1z M39.5,27.4H39v-1h-0.9v1h-0.5v-2.3h0.5V26H39v-0.9h0.5V27.4L39.5,27.4z M41.1,25.4
		c-0.2,0-0.3,0.1-0.4,0.2c-0.1,0.1-0.2,0.3-0.2,0.6c0,0.5,0.2,0.8,0.6,0.8c0.2,0,0.4,0,0.6-0.1v0.4c-0.2,0.1-0.4,0.1-0.6,0.1
		c-0.3,0-0.6-0.1-0.8-0.3S40,26.6,40,26.2c0-0.2,0-0.5,0.1-0.6c0.1-0.2,0.2-0.3,0.4-0.4c0.2-0.1,0.4-0.1,0.6-0.1
		c0.2,0,0.5,0.1,0.7,0.2l-0.2,0.4c-0.1,0-0.2-0.1-0.3-0.1C41.2,25.4,41.2,25.4,41.1,25.4L41.1,25.4z M44,27.4h-0.6l-0.8-1.2v1.2
		h-0.5v-2.3h0.5v1.1l0.8-1.1H44l-0.8,1.1L44,27.4L44,27.4z M46.4,26.2c0,0.4-0.1,0.7-0.3,0.9c-0.2,0.2-0.5,0.3-0.8,0.3
		c-0.4,0-0.6-0.1-0.8-0.3c-0.2-0.2-0.3-0.5-0.3-0.9c0-0.4,0.1-0.7,0.3-0.9c0.2-0.2,0.5-0.3,0.8-0.3c0.4,0,0.6,0.1,0.8,0.3
		C46.3,25.5,46.4,25.8,46.4,26.2L46.4,26.2z M44.7,26.2c0-0.3,0-0.5,0.1-0.6c0.1-0.1,0.2-0.2,0.4-0.2c0.4,0,0.6,0.3,0.6,0.8
		c0,0.5-0.2,0.8-0.6,0.8c-0.2,0-0.3-0.1-0.4-0.2C44.8,26.7,44.7,26.5,44.7,26.2L44.7,26.2z M48.7,24.3c0,0.2-0.1,0.3-0.2,0.4
		c-0.1,0.1-0.3,0.1-0.6,0.1c-0.3,0-0.4,0-0.6-0.1c-0.1-0.1-0.2-0.2-0.2-0.4h0.4c0,0.1,0,0.2,0.1,0.2c0,0,0.1,0.1,0.3,0.1
		c0.1,0,0.2,0,0.2-0.1c0.1,0,0.1-0.1,0.1-0.2H48.7L48.7,24.3z M23.9,21.7l-0.2,0.4h-8.8V18h9V21.7L23.9,21.7L23.9,21.7z M52,22.1
		c0,0.4-0.2,0.8-0.5,1c-0.3,0.2-0.6,0.3-0.9,0.3v-5.5l-3.8,5.5h-1.4l-3.8-5.5v5.5c-0.4,0-0.8-0.2-1.1-0.5c-0.2-0.3-0.3-0.6-0.3-0.9
		v-4.1c0-0.4,0.2-0.8,0.5-1c0.3-0.2,0.6-0.3,0.9-0.3l0.4,0l4.1,5.7l4-5.7l0.5,0c0.4,0,0.8,0.2,1.1,0.5c0.2,0.3,0.3,0.6,0.3,0.9V22.1
		L52,22.1L52,22.1z M38.4,22.1c0,0.4-0.2,0.8-0.5,1.1c-0.3,0.2-0.6,0.3-0.9,0.3h-9c-0.5,0-0.8-0.2-1.1-0.5c-0.2-0.3-0.3-0.6-0.3-0.9
		H37v-1.4h-9c-0.4,0-0.8-0.2-1.1-0.5c-0.2-0.3-0.3-0.6-0.3-0.9v-1.4c0-0.5,0.2-0.8,0.5-1.1c0.3-0.2,0.6-0.3,0.9-0.3h9
		c0.4,0,0.8,0.2,1.1,0.5c0.2,0.3,0.3,0.6,0.3,0.9H28v1.4h9c0.4,0,0.8,0.2,1.1,0.5c0.2,0.3,0.3,0.6,0.3,0.9V22.1L38.4,22.1L38.4,22.1
		z M79,18L79,18h-5.2v5.5h-1.4V18h-5.2c0-0.4,0.2-0.8,0.5-1.1c0.3-0.2,0.6-0.3,0.9-0.3h9c0.4,0,0.8,0.2,1.1,0.5
		C78.9,17.3,79,17.6,79,18L79,18z M11.8,23.5L11.8,23.5h-1.4v-2.8h-9v2.8H0v-6.9h1.4v2.8H9l1.4-2.8l1.4,0l-1.4,2.8
		c0.4,0.1,0.7,0.2,1,0.4c0.3,0.3,0.4,0.6,0.4,1V23.5z"/>
</g>
</svg>
