<?xml version="1.0" encoding="utf-8"?>
<!-- Generator: Adobe Illustrator 20.1.0, SVG Export Plug-In . SVG Version: 6.00 Build 0)  -->
<svg version="1.1" id="Слой_1" xmlns="http://www.w3.org/2000/svg" xmlns:xlink="http://www.w3.org/1999/xlink" x="0px" y="0px"
	 viewBox="0 0 200.4 48.3" style="enable-background:new 0 0 200.4 48.3;" xml:space="preserve">
<style type="text/css">
	.st0{fill:#FFFFFF;}
	.st1{fill:url(#SVGID_1_);}
</style>
<g>
	<path class="st0" d="M6.9,36.1c0,1.1-0.4,2-1.1,2.5S4,39.5,2.6,39.5H0.8v4.7H0V32.8h2.8C5.5,32.8,6.9,33.9,6.9,36.1z M0.8,38.8h1.6
		c1.3,0,2.2-0.2,2.8-0.6c0.6-0.4,0.9-1.1,0.9-2.1c0-0.9-0.3-1.5-0.8-2c-0.5-0.4-1.4-0.6-2.5-0.6h-2C0.8,33.5,0.8,38.8,0.8,38.8z"/>
	<path class="st0" d="M12.7,35.6c0.4,0,0.7,0,1.2,0.1l-0.1,0.7c-0.4-0.1-0.7-0.1-1.1-0.1c-0.7,0-1.3,0.3-1.8,0.9
		c-0.5,0.6-0.7,1.4-0.7,2.3v4.7H9.3v-8.5H10l0.1,1.5h0.1c0.3-0.6,0.7-1.1,1.1-1.3C11.6,35.7,12.1,35.6,12.7,35.6z"/>
	<path class="st0" d="M19.2,44.4c-1.2,0-2.2-0.4-2.9-1.1c-0.7-0.8-1-1.8-1-3.2s0.3-2.4,1-3.3c0.7-0.8,1.6-1.2,2.7-1.2
		c1,0,1.8,0.3,2.4,1s0.9,1.6,0.9,2.8V40h-6.1c0,1.2,0.3,2.1,0.8,2.7c0.5,0.6,1.3,0.9,2.3,0.9c0.5,0,0.9,0,1.3-0.1s0.8-0.2,1.4-0.4
		v0.7c-0.5,0.2-0.9,0.4-1.3,0.4S19.7,44.4,19.2,44.4z M18.9,36.2c-0.8,0-1.5,0.3-2,0.8s-0.8,1.3-0.9,2.3h5.3c0-1-0.2-1.8-0.6-2.3
		S19.7,36.2,18.9,36.2z"/>
	<path class="st0" d="M27.8,35.6c0.6,0,1.1,0.1,1.6,0.3c0.4,0.2,0.8,0.6,1.2,1.1l0,0c0-0.7,0-1.3,0-1.9V32h0.7v12.2h-0.5l-0.2-1.3
		h-0.1c-0.6,1-1.6,1.5-2.8,1.5c-1.2,0-2.1-0.4-2.7-1.1c-0.6-0.7-0.9-1.8-0.9-3.2c0-1.5,0.3-2.6,0.9-3.4
		C25.7,35.9,26.6,35.6,27.8,35.6z M27.8,36.3c-0.9,0-1.6,0.3-2.1,1S25,38.9,25,40.1c0,2.4,0.9,3.6,2.8,3.6c1,0,1.7-0.3,2.1-0.8
		c0.4-0.6,0.7-1.5,0.7-2.8V40c0-1.3-0.2-2.3-0.7-2.8C29.5,36.5,28.8,36.3,27.8,36.3z"/>
	<path class="st0" d="M34.2,33.4c0-0.5,0.2-0.8,0.5-0.8c0.2,0,0.3,0.1,0.4,0.2c0.1,0.1,0.1,0.3,0.1,0.6c0,0.2,0,0.4-0.1,0.6
		c-0.1,0.1-0.2,0.2-0.4,0.2C34.4,34.1,34.2,33.9,34.2,33.4z M35.1,44.2h-0.8v-8.5h0.8V44.2z"/>
	<path class="st0" d="M41.5,44.4c-1.2,0-2.2-0.4-2.9-1.1s-1-1.8-1-3.2s0.4-2.5,1.1-3.3c0.7-0.8,1.7-1.2,2.9-1.2
		c0.7,0,1.4,0.1,2.1,0.4l-0.2,0.7c-0.7-0.2-1.4-0.4-1.9-0.4c-1,0-1.8,0.3-2.4,1c-0.5,0.6-0.8,1.6-0.8,2.8c0,1.1,0.3,2,0.8,2.7
		c0.5,0.6,1.3,1,2.3,1c0.8,0,1.5-0.1,2.1-0.4V44C43.1,44.2,42.4,44.4,41.5,44.4z"/>
	<path class="st0" d="M48.1,43.7c0.5,0,0.9,0,1.3-0.1v0.6c-0.4,0.1-0.8,0.2-1.3,0.2c-0.8,0-1.3-0.2-1.7-0.6c-0.4-0.4-0.5-1-0.5-1.9
		v-5.5h-1.3v-0.5l1.3-0.4l0.4-1.9h0.4v2.1h2.5v0.7h-2.5v5.4c0,0.7,0.1,1.1,0.3,1.4C47.3,43.5,47.6,43.7,48.1,43.7z"/>
	<path class="st0" d="M56.6,44.2l-0.2-1.3h-0.1c-0.4,0.5-0.9,0.9-1.3,1.2c-0.5,0.2-1,0.3-1.6,0.3c-0.8,0-1.5-0.2-1.9-0.6
		c-0.5-0.4-0.7-1-0.7-1.8s0.3-1.5,1-1.9c0.7-0.5,1.7-0.7,3-0.7h1.6v-0.6c0-0.8-0.2-1.4-0.5-1.8s-0.9-0.6-1.6-0.6
		c-0.8,0-1.6,0.2-2.4,0.7l-0.3-0.7c0.9-0.4,1.9-0.7,2.8-0.7c0.9,0,1.6,0.2,2.1,0.7s0.7,1.2,0.7,2.3v5.6h-0.6V44.2z M53.4,43.7
		c0.9,0,1.6-0.3,2.1-0.8s0.8-1.2,0.8-2.2v-0.8L54.9,40c-1.2,0.1-2,0.2-2.6,0.6s-0.8,0.8-0.8,1.5c0,0.5,0.2,0.9,0.5,1.2
		C52.4,43.5,52.9,43.7,53.4,43.7z"/>
	<path class="st0" d="M63.6,35.6c1.2,0,2.1,0.4,2.7,1.1s0.9,1.8,0.9,3.3c0,1.4-0.3,2.5-0.9,3.3s-1.5,1.1-2.7,1.1
		c-0.6,0-1.1-0.1-1.6-0.4s-0.9-0.6-1.1-1.1h-0.1l-0.2,1.3h-0.5V32.1h0.8v3.1c0,0.5,0,0.9,0,1.3v0.7H61c0.3-0.5,0.7-0.9,1.2-1.1
		C62.4,35.7,63,35.6,63.6,35.6z M63.6,36.3c-1,0-1.7,0.3-2.1,0.9c-0.4,0.6-0.6,1.5-0.6,2.8v0.1c0,1.3,0.2,2.2,0.7,2.8
		s1.2,0.8,2.1,0.8s1.6-0.3,2.1-1s0.7-1.6,0.7-2.8C66.4,37.5,65.5,36.3,63.6,36.3z"/>
	<path class="st0" d="M70.5,44.2h-0.8V32.1h0.8V44.2z"/>
	<path class="st0" d="M76.9,44.4c-1.2,0-2.2-0.4-2.9-1.1c-0.7-0.8-1-1.8-1-3.2s0.3-2.4,1-3.3c0.7-0.8,1.6-1.2,2.7-1.2
		c1,0,1.8,0.3,2.4,1s0.9,1.6,0.9,2.8V40h-6.1c0,1.2,0.3,2.1,0.8,2.7s1.3,0.9,2.3,0.9c0.5,0,0.9,0,1.3-0.1s0.8-0.2,1.4-0.4v0.7
		c-0.5,0.2-0.9,0.4-1.3,0.4S77.4,44.4,76.9,44.4z M76.7,36.2c-0.8,0-1.5,0.3-2,0.8s-0.8,1.3-0.9,2.3h5.3c0-1-0.2-1.8-0.6-2.3
		S77.5,36.2,76.7,36.2z"/>
	<path class="st0" d="M87.5,44.2h-0.8V32.1h0.8V44.2z"/>
	<path class="st0" d="M94,44.4c-1.2,0-2.2-0.4-2.9-1.1s-1-1.8-1-3.2s0.3-2.4,1-3.3s1.6-1.2,2.7-1.2c1,0,1.8,0.3,2.4,1
		s0.9,1.6,0.9,2.8V40H91c0,1.2,0.3,2.1,0.8,2.7s1.3,0.9,2.3,0.9c0.5,0,0.9,0,1.3-0.1s0.8-0.2,1.4-0.4v0.7c-0.5,0.2-0.9,0.4-1.3,0.4
		S94.5,44.4,94,44.4z M93.7,36.2c-0.8,0-1.5,0.3-2,0.8s-0.8,1.3-0.9,2.3h5.3c0-1-0.2-1.8-0.6-2.3S94.5,36.2,93.7,36.2z"/>
	<path class="st0" d="M104.6,44.2l-0.2-1.3h-0.1c-0.4,0.5-0.9,0.9-1.3,1.2s-1,0.3-1.6,0.3c-0.8,0-1.5-0.2-1.9-0.6s-0.7-1-0.7-1.8
		s0.3-1.5,1-1.9s1.7-0.7,3-0.7h1.6v-0.6c0-0.8-0.2-1.4-0.5-1.8s-0.9-0.6-1.6-0.6c-0.8,0-1.6,0.2-2.4,0.7l-0.3-0.7
		c0.9-0.4,1.9-0.7,2.8-0.7s1.6,0.2,2.1,0.7s0.7,1.2,0.7,2.3v5.6h-0.6V44.2z M101.5,43.7c0.9,0,1.6-0.3,2.1-0.8s0.8-1.2,0.8-2.2v-0.8
		l-1.5,0.1c-1.2,0.1-2,0.2-2.6,0.6s-0.8,0.8-0.8,1.5c0,0.5,0.2,0.9,0.5,1.2S100.9,43.7,101.5,43.7z"/>
	<path class="st0" d="M111.2,35.6c0.6,0,1.1,0.1,1.6,0.3s0.8,0.6,1.2,1.1l0,0c0-0.7,0-1.3,0-1.9V32h0.8v12.2h-0.5l-0.2-1.3H114
		c-0.6,1-1.6,1.5-2.8,1.5c-1.2,0-2.1-0.4-2.7-1.1s-0.9-1.8-0.9-3.2c0-1.5,0.3-2.6,0.9-3.4S110.1,35.6,111.2,35.6z M111.2,36.3
		c-0.9,0-1.6,0.3-2.1,1s-0.7,1.6-0.7,2.8c0,2.4,0.9,3.6,2.8,3.6c1,0,1.7-0.3,2.1-0.8s0.7-1.5,0.7-2.8V40c0-1.3-0.2-2.3-0.7-2.8
		S112.2,36.3,111.2,36.3z"/>
	<path class="st0" d="M128.7,35.7v0.5l-1.8,0.1c0.5,0.6,0.7,1.2,0.7,1.9c0,0.8-0.3,1.5-0.8,2s-1.3,0.8-2.2,0.8c-0.4,0-0.7,0-0.8,0
		c-0.3,0.2-0.5,0.4-0.7,0.6s-0.2,0.5-0.2,0.7c0,0.3,0.1,0.5,0.3,0.6s0.6,0.2,1,0.2h1.5c0.9,0,1.6,0.2,2.1,0.6
		c0.5,0.4,0.7,0.9,0.7,1.7c0,0.9-0.4,1.6-1.1,2.1s-1.8,0.7-3.1,0.7c-1.1,0-1.9-0.2-2.5-0.6s-0.9-1-0.9-1.7c0-0.6,0.2-1.1,0.5-1.5
		s0.9-0.6,1.5-0.8c-0.3-0.1-0.5-0.3-0.6-0.5s-0.2-0.4-0.2-0.7c0-0.6,0.4-1.1,1.1-1.5c-0.5-0.2-0.9-0.5-1.2-1s-0.4-0.9-0.4-1.5
		c0-0.8,0.3-1.5,0.8-2s1.3-0.8,2.2-0.8c0.6,0,1,0.1,1.3,0.2L128.7,35.7L128.7,35.7z M121.9,45.7c0,1.2,0.9,1.8,2.6,1.8
		c2.2,0,3.3-0.7,3.3-2.1c0-0.5-0.2-0.9-0.5-1.1s-0.9-0.3-1.7-0.3h-1.4C122.7,43.8,121.9,44.4,121.9,45.7z M122.5,38.4
		c0,0.7,0.2,1.2,0.6,1.5s0.9,0.5,1.6,0.5s1.3-0.2,1.6-0.5s0.6-0.9,0.6-1.6c0-0.7-0.2-1.3-0.6-1.6s-0.9-0.5-1.6-0.5s-1.2,0.2-1.6,0.6
		S122.5,37.7,122.5,38.4z"/>
	<path class="st0" d="M134.1,44.4c-1.2,0-2.2-0.4-2.9-1.1s-1-1.8-1-3.2s0.3-2.4,1-3.3s1.6-1.2,2.7-1.2c1,0,1.8,0.3,2.4,1
		s0.9,1.6,0.9,2.8V40h-6.1c0,1.2,0.3,2.1,0.8,2.7s1.3,0.9,2.3,0.9c0.5,0,0.9,0,1.3-0.1s0.8-0.2,1.4-0.4v0.7
		c-0.5,0.2-0.9,0.4-1.3,0.4S134.6,44.4,134.1,44.4z M133.9,36.2c-0.8,0-1.5,0.3-2,0.8s-0.8,1.3-0.9,2.3h5.3c0-1-0.2-1.8-0.6-2.3
		S134.6,36.2,133.9,36.2z"/>
	<path class="st0" d="M145.5,44.2v-5.5c0-0.9-0.2-1.5-0.5-1.9s-0.9-0.6-1.7-0.6c-1,0-1.8,0.3-2.2,0.8s-0.7,1.3-0.7,2.5v4.7h-0.8
		v-8.5h0.7l0.1,1.2l0,0c0.6-0.9,1.5-1.3,2.9-1.3c1.9,0,2.9,1,2.9,3.1v5.6L145.5,44.2L145.5,44.2z"/>
	<path class="st0" d="M152.6,44.4c-1.2,0-2.2-0.4-2.9-1.1s-1-1.8-1-3.2s0.3-2.4,1-3.3s1.6-1.2,2.7-1.2c1,0,1.8,0.3,2.4,1
		s0.9,1.6,0.9,2.8V40h-6.1c0,1.2,0.3,2.1,0.8,2.7s1.3,0.9,2.3,0.9c0.5,0,0.9,0,1.3-0.1s0.8-0.2,1.4-0.4v0.7
		c-0.5,0.2-0.9,0.4-1.3,0.4S153.1,44.4,152.6,44.4z M152.4,36.2c-0.8,0-1.5,0.3-2,0.8s-0.8,1.3-0.9,2.3h5.3c0-1-0.2-1.8-0.6-2.3
		S153.1,36.2,152.4,36.2z"/>
	<path class="st0" d="M161.5,35.6c0.4,0,0.7,0,1.2,0.1l-0.1,0.7c-0.4-0.1-0.7-0.1-1.1-0.1c-0.7,0-1.3,0.3-1.8,0.9s-0.7,1.4-0.7,2.3
		v4.7h-0.8v-8.5h0.7l0.1,1.5h0.1c0.3-0.6,0.7-1.1,1.1-1.3S160.9,35.6,161.5,35.6z"/>
	<path class="st0" d="M169.7,44.2l-0.2-1.3h-0.1c-0.4,0.5-0.9,0.9-1.3,1.2s-1,0.3-1.6,0.3c-0.8,0-1.5-0.2-1.9-0.6s-0.7-1-0.7-1.8
		s0.3-1.5,1-1.9s1.7-0.7,3-0.7h1.6v-0.6c0-0.8-0.2-1.4-0.5-1.8s-0.9-0.6-1.6-0.6c-0.8,0-1.6,0.2-2.4,0.7l-0.3-0.7
		c0.9-0.4,1.9-0.7,2.8-0.7c0.9,0,1.6,0.2,2.1,0.7s0.7,1.2,0.7,2.3v5.6h-0.6V44.2z M166.5,43.7c0.9,0,1.6-0.3,2.1-0.8
		s0.8-1.2,0.8-2.2v-0.8l-1.5,0.1c-1.2,0.1-2,0.2-2.6,0.6s-0.8,0.8-0.8,1.5c0,0.5,0.2,0.9,0.5,1.2S166,43.7,166.5,43.7z"/>
	<path class="st0" d="M175.4,43.7c0.5,0,0.9,0,1.3-0.1v0.6c-0.4,0.1-0.8,0.2-1.3,0.2c-0.8,0-1.3-0.2-1.7-0.6s-0.5-1-0.5-1.9v-5.5
		h-1.3v-0.5l1.3-0.4l0.4-1.9h0.4v2.1h2.5v0.7H174v5.4c0,0.7,0.1,1.1,0.3,1.4S174.9,43.7,175.4,43.7z"/>
	<path class="st0" d="M178.6,33.4c0-0.5,0.2-0.8,0.5-0.8c0.2,0,0.3,0.1,0.4,0.2s0.1,0.3,0.1,0.6c0,0.2,0,0.4-0.1,0.6
		s-0.2,0.2-0.4,0.2C178.7,34.1,178.6,33.9,178.6,33.4z M179.4,44.2h-0.8v-8.5h0.8V44.2z"/>
	<path class="st0" d="M189.5,40c0,1.4-0.3,2.5-1,3.2s-1.6,1.2-2.8,1.2c-0.7,0-1.4-0.2-2-0.5s-1-0.9-1.3-1.5s-0.5-1.4-0.5-2.3
		c0-1.4,0.3-2.5,1-3.2s1.6-1.2,2.8-1.2s2.1,0.4,2.7,1.2S189.5,38.6,189.5,40z M182.8,40c0,1.2,0.3,2.1,0.8,2.7s1.2,1,2.2,1
		s1.7-0.3,2.2-1s0.8-1.6,0.8-2.7c0-1.2-0.3-2.1-0.8-2.7s-1.2-1-2.2-1s-1.7,0.3-2.2,1S182.8,38.8,182.8,40z"/>
	<path class="st0" d="M197.9,44.2v-5.5c0-0.9-0.2-1.5-0.5-1.9s-0.9-0.6-1.7-0.6c-1,0-1.8,0.3-2.2,0.8s-0.7,1.3-0.7,2.5v4.7H192v-8.5
		h0.7l0.1,1.2l0,0c0.6-0.9,1.5-1.3,2.9-1.3c1.9,0,2.9,1,2.9,3.1v5.6L197.9,44.2L197.9,44.2z"/>
</g>
<g>
	<path class="st0" d="M3.7,20.5c1.8,0,3.2-0.4,4.2-1.1c1.1-0.8,1.6-2,1.6-3.7c0-2.1-1.1-3.4-3.3-4.1c1.6-0.5,2.4-1.6,2.4-3.4
		c0-1.6-0.5-2.8-1.6-3.5C6.1,4.2,4.8,3.9,3.1,3.9H0v16.6H3.7L3.7,20.5z M3,5.3c2.7,0,4.1,1,4.1,2.9c0,1.2-0.3,2-1,2.4
		c-0.6,0.4-1.6,0.6-2.8,0.6H1.5V5.3H3L3,5.3z M3.9,12.5c1.4,0,2.4,0.2,3,0.6C7.6,13.6,8,14.5,8,15.8c0,2.2-1.5,3.3-4.4,3.3H1.5v-6.6
		H3.9L3.9,12.5z M27.4,6.1c-1.7-1.7-3.7-2.5-6-2.5s-4.3,0.8-6,2.5s-2.5,3.7-2.5,6c0,2.4,0.8,4.5,2.4,6.2c1.6,1.7,3.6,2.5,6.1,2.5
		c2.4,0,4.5-0.8,6.1-2.5s2.5-3.8,2.5-6.2C29.9,9.7,29.1,7.7,27.4,6.1L27.4,6.1z M26.4,17.2c-1.3,1.5-3,2.2-5,2.2s-3.7-0.7-5-2.2
		c-1.3-1.4-2-3.1-2-5.1c0-1.9,0.7-3.5,2.1-5c1.4-1.4,3-2.2,4.8-2.2c1.9,0,3.6,0.7,4.9,2.1c1.4,1.4,2.1,3.1,2.1,5
		C28.3,14,27.7,15.8,26.4,17.2L26.4,17.2z"/>
	<path class="st0" d="M40.4,21.8c-2.3-0.5-3.5-2.2-3.5-5V0.6h-2V17c0,2.2,0.6,3.9,1.9,5.1c0.9,0.9,2.1,1.5,3.6,1.7V21.8z"/>
	
		<linearGradient id="SVGID_1_" gradientUnits="userSpaceOnUse" x1="44.85" y1="794.6" x2="44.85" y2="817.792" gradientTransform="matrix(1 0 0 1 0 -794)">
		<stop  offset="1.176471e-02" style="stop-color:#E341FD"/>
		<stop  offset="0.28" style="stop-color:#EA4EDA"/>
		<stop  offset="0.8725" style="stop-color:#FC6F80"/>
		<stop  offset="0.975" style="stop-color:#FF7570"/>
	</linearGradient>
	<path class="st1" d="M45.7,0.6v16.1c0,2.9-1.2,4.6-3.7,5v2c1.5-0.2,2.8-0.8,3.8-1.7c1.3-1.2,1.9-2.9,1.9-5.2V0.6H45.7z"/>
	<path class="st0" d="M52.7,20.5V3.9h1.9l9.2,14.7c0-0.6,0-1.4,0-2.4V3.9h1.5v16.6h-1.9L54.1,5.9c0,0.7,0,1.2,0,1.5v13.1H52.7z"/>
	<path class="st0" d="M81.1,6.1c-1.6-1.4-3.6-2.2-6.3-2.2h-4.7v16.6h4.8c2.7,0,4.8-0.7,6.3-2.2s2.3-3.5,2.3-6.2
		C83.5,9.6,82.7,7.5,81.1,6.1z M80,17.4c-1.2,1.2-3,1.8-5.3,1.8h-3.1V5.3h3.2c2.2,0,4,0.6,5.2,1.8c1.3,1.2,1.9,2.9,1.9,5.1
		S81.3,16.2,80,17.4z"/>
	<path class="st0" d="M86.8,15.7h1.5c0,0.9,0.3,1.7,0.8,2.4c0.6,0.7,1.4,1.1,2.3,1.1c1,0,1.8-0.4,2.4-1.1s0.8-1.5,0.8-2.4
		c0-1.2-0.6-2.1-1.9-2.7c-1.2-0.5-2.4-1-3.5-1.5c-1.3-0.7-1.9-1.8-1.9-3.2c0-1.3,0.4-2.3,1.2-3.1C89.3,4.4,90.4,4,91.7,4
		c1.3,0,2.3,0.4,3,1.2c0.7,0.7,1.1,1.7,1.1,3h-1.5c-0.1-0.8-0.3-1.5-0.8-2c-0.5-0.6-1.1-0.8-1.9-0.8s-1.5,0.3-2.1,0.8
		c-0.5,0.6-0.8,1.2-0.8,2c0,0.7,0.3,1.2,0.8,1.7c0.4,0.3,0.9,0.6,1.7,1c1.4,0.6,2.3,1,2.8,1.3c1.1,0.6,1.7,1.4,2,2.2
		c0.1,0.4,0.2,0.9,0.2,1.4c0,1.4-0.4,2.5-1.3,3.5c-0.9,0.7-2.1,1.2-3.5,1.2S88.9,20,88,19.1C87.2,18.2,86.8,17,86.8,15.7z"/>
	<path class="st0" d="M104.4,20.5h-1.5V5.3h-3.3V3.9h8.3v1.4h-3.4L104.4,20.5L104.4,20.5z"/>
	<path class="st0" d="M122,20.5h-1.6l-2.1-5.4h-6.8l-2.1,5.4h-1.6l6.5-16.6h1.3L122,20.5z M114.9,6.3l-2.9,7.4h5.8L114.9,6.3
		L114.9,6.3z"/>
	<path class="st0" d="M133.2,20.5l-6.3-8.4v8.4h-1.5V3.9h3.9c3.7,0,5.6,1.6,5.6,4.7c0,1.6-0.5,2.7-1.6,3.5c-0.9,0.7-2.2,1-3.8,1
		l5.6,7.3L133.2,20.5L133.2,20.5z M126.9,5.3V12h1.9c1.4,0,2.4-0.2,3.1-0.6c0.9-0.5,1.4-1.4,1.4-2.7s-0.4-2.2-1.2-2.8
		c-0.7-0.5-1.7-0.7-3-0.7h-2.2C126.9,5.2,126.9,5.3,126.9,5.3z"/>
	<path class="st0" d="M142.5,20.5H141V5.3h-3.3V3.9h8.3v1.4h-3.4v15.2H142.5z"/>
</g>
</svg>
