<?xml version="1.0" encoding="utf-8"?>
<!-- Generator: Adobe Illustrator 20.1.0, SVG Export Plug-In . SVG Version: 6.00 Build 0)  -->
<svg version="1.1" id="Слой_1" xmlns="http://www.w3.org/2000/svg" xmlns:xlink="http://www.w3.org/1999/xlink" x="0px" y="0px"
	 viewBox="0 0 58.1 58.1" style="enable-background:new 0 0 58.1 58.1;" xml:space="preserve">
<style type="text/css">
	.st0{fill:#6789FC;}
	.st1{fill:none;stroke:#FFFFFF;stroke-width:1.5;stroke-miterlimit:10;}
	.st2{fill:none;stroke:#FFFFFF;stroke-width:1.5;stroke-linecap:round;stroke-miterlimit:10;}
	.st3{fill:none;stroke:#FFFFFF;stroke-width:1.5;stroke-linecap:round;stroke-linejoin:round;stroke-miterlimit:10;}
	.st4{fill:#FFFFFF;}
</style>
<circle class="st0" cx="29.1" cy="29.1" r="29"/>
<g>
	<g>
		<g>
			<path class="st4" d="M32.4,17.5h3.3c2.3,0,4.1,1.9,4.1,4.1v16.5c0,2.3-1.9,4.1-4.1,4.1H22.5c-2.3,0-4.1-1.9-4.1-4.1V21.6
				c0-2.3,1.9-4.1,4.1-4.1h3.3v1.7h-3.3c-1.4,0-2.5,1.1-2.5,2.5v16.5c0,1.4,1.1,2.5,2.5,2.5h13.2c1.4,0,2.5-1.1,2.5-2.5V21.6
				c0-1.4-1.1-2.5-2.5-2.5h-3.3V17.5z"/>
		</g>
		<g>
			<path class="st4" d="M31.3,22.5h-4.4c-1.1,0-1.9-0.9-1.9-1.9v-2.7c0-1.1,0.9-1.9,1.9-1.9h4.4c1.1,0,1.9,0.9,1.9,1.9v2.7
				C33.2,21.6,32.3,22.5,31.3,22.5z M26.9,17.5c-0.2,0-0.3,0.1-0.3,0.3v2.7c0,0.2,0.1,0.3,0.3,0.3h4.4c0.2,0,0.3-0.1,0.3-0.3v-2.7
				c0-0.2-0.1-0.3-0.3-0.3H26.9z"/>
		</g>
		<path class="st3" d="M20,30.8h1.9h3.8c0,0,1,2.7,1.1,2.7s1.9-7.9,1.9-7.9l1,11.3l1.5-5.7l7.1-0.2"/>
	</g>
</g>
</svg>
