<?xml version="1.0" encoding="utf-8"?>
<!-- Generator: Adobe Illustrator 20.1.0, SVG Export Plug-In . SVG Version: 6.00 Build 0)  -->
<svg version="1.1" id="Слой_1" xmlns="http://www.w3.org/2000/svg" xmlns:xlink="http://www.w3.org/1999/xlink" x="0px" y="0px"
	 viewBox="0 0 58.1 58.1" style="enable-background:new 0 0 58.1 58.1;" xml:space="preserve">
<style type="text/css">
	.st0{fill:#6789FC;}
	.st1{fill:none;stroke:#FFFFFF;stroke-width:1.5;stroke-miterlimit:10;}
	.st2{fill:none;stroke:#FFFFFF;stroke-width:1.5;stroke-linecap:round;stroke-miterlimit:10;}
	.st3{fill:none;stroke:#FFFFFF;stroke-width:1.5;stroke-linecap:round;stroke-linejoin:round;stroke-miterlimit:10;}
	.st4{fill:#FFFFFF;}
</style>
<circle class="st0" cx="29.1" cy="29.1" r="29"/>
<g>
	<path class="st1" d="M40,43.3L40,43.3c-2,0-3.7-1.6-3.7-3.7v-8c0-2,1.6-3.7,3.7-3.7h0c2,0,3.7,1.6,3.7,3.7v8
		C43.6,41.7,42,43.3,40,43.3z"/>
	<path class="st2" d="M33.1,34.6c-1.6,1.3-3.6,2.1-5.8,2.1c-5,0-9.1-4.1-9.1-9.1s4.1-9.1,9.1-9.1c2.3,0,4.5,0.9,6.1,2.3"/>
	<path class="st2" d="M34.2,38.3c-2,1.3-4.4,2-6.9,2c-7.1,0-12.8-5.7-12.8-12.8s5.7-12.8,12.8-12.8c3.1,0,5.9,1.1,8.1,2.9"/>
	<line class="st2" x1="21.7" y1="42.9" x2="32.2" y2="42.9"/>
	<line class="st2" x1="23.2" y1="31.7" x2="30.6" y2="24.3"/>
	<line class="st2" x1="22" y1="27.6" x2="26.6" y2="23.1"/>
	<line class="st2" x1="26.9" y1="32.6" x2="31.5" y2="28"/>
	<line class="st2" x1="26.9" y1="40.9" x2="26.9" y2="42.4"/>
	<polyline class="st3" points="37.1,29.4 37.1,25.6 42.5,25.6 42.5,28.8 	"/>
	<polyline class="st3" points="38,25.3 38,15 41.7,18.5 41.7,25.3 	"/>
</g>
</svg>
