<?xml version="1.0" encoding="utf-8"?>
<!-- Generator: Adobe Illustrator 20.1.0, SVG Export Plug-In . SVG Version: 6.00 Build 0)  -->
<svg version="1.1" id="Слой_1" xmlns="http://www.w3.org/2000/svg" xmlns:xlink="http://www.w3.org/1999/xlink" x="0px" y="0px"
	 viewBox="0 0 58.1 58.1" style="enable-background:new 0 0 58.1 58.1;" xml:space="preserve">
<style type="text/css">
	.st0{fill:#6789FC;}
	.st1{fill:none;stroke:#FFFFFF;stroke-width:1.5;stroke-miterlimit:10;}
	.st2{fill:none;stroke:#FFFFFF;stroke-width:1.5;stroke-linecap:round;stroke-miterlimit:10;}
	.st3{fill:none;stroke:#FFFFFF;stroke-width:1.5;stroke-linecap:round;stroke-linejoin:round;stroke-miterlimit:10;}
	.st4{fill:#FFFFFF;}
</style>
<circle class="st0" cx="29.1" cy="29.1" r="29"/>
<g>
	<path class="st1" d="M18.3,37.9L18.3,37.9c-1.5,0-2.8-1.3-2.8-2.8v-12c0-1.5,1.3-2.8,2.8-2.8h0c1.5,0,2.8,1.3,2.8,2.8v12
		C21.2,36.6,19.9,37.9,18.3,37.9z"/>
	<path class="st1" d="M13.9,34.8L13.9,34.8c-0.9,0-1.6-0.7-1.6-1.6v-7.9c0-0.9,0.7-1.6,1.6-1.6h0c0.9,0,1.6,0.7,1.6,1.6v7.9
		C15.5,34.1,14.8,34.8,13.9,34.8z"/>
	<path class="st1" d="M39.8,20.3L39.8,20.3c1.5,0,2.8,1.3,2.8,2.8v12c0,1.5-1.3,2.8-2.8,2.8h0c-1.5,0-2.8-1.3-2.8-2.8v-12
		C37,21.5,38.2,20.3,39.8,20.3z"/>
	<path class="st1" d="M44.2,23.4L44.2,23.4c0.9,0,1.6,0.7,1.6,1.6v7.9c0,0.9-0.7,1.6-1.6,1.6h0c-0.9,0-1.6-0.7-1.6-1.6V25
		C42.6,24.1,43.3,23.4,44.2,23.4z"/>
	<line class="st1" x1="21.2" y1="27.1" x2="37" y2="27.1"/>
	<line class="st1" x1="21.2" y1="30.8" x2="37" y2="30.8"/>
</g>
</svg>
