<?xml version="1.0" encoding="utf-8"?>
<!-- Generator: Adobe Illustrator 20.1.0, SVG Export Plug-In . SVG Version: 6.00 Build 0)  -->
<svg version="1.1" id="Слой_1" xmlns="http://www.w3.org/2000/svg" xmlns:xlink="http://www.w3.org/1999/xlink" x="0px" y="0px"
	 viewBox="0 0 58.1 58.1" style="enable-background:new 0 0 58.1 58.1;" xml:space="preserve">
<style type="text/css">
	.st0{fill:#6789FC;}
	.st1{fill:none;stroke:#FFFFFF;stroke-width:1.5;stroke-miterlimit:10;}
	.st2{fill:none;stroke:#FFFFFF;stroke-width:1.5;stroke-linecap:round;stroke-miterlimit:10;}
	.st3{fill:none;stroke:#FFFFFF;stroke-width:1.5;stroke-linecap:round;stroke-linejoin:round;stroke-miterlimit:10;}
	.st4{fill:#FFFFFF;}
</style>
<circle class="st0" cx="29.1" cy="29.1" r="29"/>
<g>
	<g>
		<g>
			<g>
				<path class="st4" d="M40.5,39.5c-0.7,0-1.1-0.2-1.6-0.7l-2.6-2.3H20.9c-3.1,0-5.7-2.6-5.7-5.7v-6.5c0-3.1,2.6-5.7,5.7-5.7h16.4
					c3.1,0,5.7,2.6,5.7,5.7v12.8C43,38.4,41.8,39.5,40.5,39.5z M20.9,20.2c-2.3,0-4.1,1.8-4.1,4.1v6.5c0,2.3,1.8,4.1,4.1,4.1h15.7
					c0.2,0,0.3,0,0.5,0.2l2.9,2.6c0.5,0.5,1.3,0.2,1.3-0.7V24.3c0-2.3-1.8-4.1-4.1-4.1C37.2,20.2,20.9,20.2,20.9,20.2z"/>
			</g>
			<g>
				<path class="st4" d="M22.5,29.1c-0.3,0-0.7-0.2-0.8-0.3s-0.3-0.5-0.3-0.8s0.2-0.7,0.3-0.8c0.5-0.5,1.3-0.5,1.8,0
					c0.2,0.2,0.3,0.5,0.3,0.8s-0.2,0.7-0.3,0.8C23.2,28.9,22.9,29.1,22.5,29.1z"/>
			</g>
			<g>
				<path class="st4" d="M29.1,29.1c-0.3,0-0.7-0.2-0.8-0.3s-0.3-0.5-0.3-0.8s0.2-0.7,0.3-0.8c0.5-0.5,1.3-0.5,1.8,0
					c0.2,0.2,0.3,0.5,0.3,0.8s-0.2,0.7-0.3,0.8C29.7,28.9,29.4,29.1,29.1,29.1z"/>
			</g>
			<g>
				<path class="st4" d="M35.6,29.1c-0.3,0-0.7-0.2-0.8-0.3c-0.2-0.2-0.3-0.5-0.3-0.8s0.2-0.7,0.3-0.8c0.5-0.5,1.3-0.5,1.8,0
					c0.2,0.2,0.3,0.5,0.3,0.8s-0.2,0.7-0.3,0.8C36.3,28.9,35.9,29.1,35.6,29.1z"/>
			</g>
		</g>
	</g>
</g>
</svg>
