<?xml version="1.0" encoding="utf-8"?>
<!-- Generator: Adobe Illustrator 20.1.0, SVG Export Plug-In . SVG Version: 6.00 Build 0)  -->
<svg version="1.1" id="Слой_1" xmlns="http://www.w3.org/2000/svg" xmlns:xlink="http://www.w3.org/1999/xlink" x="0px" y="0px"
	 viewBox="0 0 58.1 58.1" style="enable-background:new 0 0 58.1 58.1;" xml:space="preserve">
<style type="text/css">
	.st0{fill:#6789FC;}
	.st1{fill:none;stroke:#FFFFFF;stroke-width:1.5;stroke-miterlimit:10;}
	.st2{fill:none;stroke:#FFFFFF;stroke-width:1.5;stroke-linecap:round;stroke-miterlimit:10;}
	.st3{fill:none;stroke:#FFFFFF;stroke-width:1.5;stroke-linecap:round;stroke-linejoin:round;stroke-miterlimit:10;}
	.st4{fill:#FFFFFF;}
</style>
<circle class="st0" cx="29.1" cy="29.1" r="29"/>
<g>
	<circle class="st1" cx="28.7" cy="30.1" r="4.1"/>
	<path class="st3" d="M26.6,30.3c0-1.3,1-2.3,2.3-2.3"/>
	<circle class="st1" cx="28.7" cy="30.1" r="7.8"/>
	<path class="st1" d="M42.9,41.4H15.5c-1.1,0-2-0.9-2-2V22.7c0-1.1,0.9-2,2-2h27.4c1.1,0,2,0.9,2,2v16.6
		C44.9,40.5,44,41.4,42.9,41.4z"/>
	<path class="st1" d="M13.5,24h2.5c1,0,1.9,0.8,1.9,1.9V36c0,1-0.8,1.9-1.9,1.9h-2.9"/>
	<path class="st1" d="M44.8,24h-2.5c-1,0-1.9,0.8-1.9,1.9V36c0,1,0.8,1.9,1.9,1.9h2.6"/>
	<path class="st1" d="M24.5,20.4V18c0-0.7,0.5-1.2,1.2-1.2h6.5c0.7,0,1.2,0.5,1.2,1.2v2.6"/>
	<path class="st1" d="M16.1,20.5v-1.8c0-0.5,0.4-0.9,0.9-0.9h2.5c0.5,0,0.9,0.4,0.9,0.9v1.9"/>
</g>
</svg>
