<?xml version="1.0" encoding="utf-8"?>
<!-- Generator: Adobe Illustrator 20.1.0, SVG Export Plug-In . SVG Version: 6.00 Build 0)  -->
<svg version="1.1" id="Слой_1" xmlns="http://www.w3.org/2000/svg" xmlns:xlink="http://www.w3.org/1999/xlink" x="0px" y="0px"
	 viewBox="0 0 58.1 58.1" style="enable-background:new 0 0 58.1 58.1;" xml:space="preserve">
<style type="text/css">
	.st0{fill:#6789FC;}
	.st1{fill:none;stroke:#FFFFFF;stroke-width:1.5;stroke-miterlimit:10;}
	.st2{fill:none;stroke:#FFFFFF;stroke-width:1.5;stroke-linecap:round;stroke-miterlimit:10;}
	.st3{fill:none;stroke:#FFFFFF;stroke-width:1.5;stroke-linecap:round;stroke-linejoin:round;stroke-miterlimit:10;}
	.st4{fill:#FFFFFF;}
	.st5{fill:none;stroke:#FFFFFF;stroke-width:1.8;stroke-linecap:round;stroke-linejoin:round;stroke-miterlimit:10;}
</style>
<circle class="st0" cx="29.1" cy="29.1" r="29"/>
<g>
	<path class="st5" d="M13.5,35.8c0,0,6.5,5.4,14.6,3.3c8.1-2.2,8.3-3.4,16.5-2.7"/>
	<path class="st5" d="M13.5,40.8c0,0,6.5,5.4,14.6,3.3c8.1-2.2,8.3-3.4,16.5-2.7"/>
	<circle class="st5" cx="29.5" cy="22.8" r="6.1"/>
	<g>
		<path class="st5" d="M29.5,13.5c0,3.1,0,3.1,0,3.1"/>
		<path class="st5" d="M29.5,28.9c0,3.1,0,3.1,0,3.1"/>
		<path class="st5" d="M35.6,22.8c3.1,0,3.1,0,3.1,0"/>
		<path class="st5" d="M20.2,22.8c3.1,0,3.1,0,3.1,0"/>
	</g>
	<g>
		<path class="st5" d="M22.9,16.2c2.2,2.2,2.2,2.2,2.2,2.2"/>
		<path class="st5" d="M33.8,27.1c2.2,2.2,2.2,2.2,2.2,2.2"/>
		<path class="st5" d="M33.8,18.4c2.2-2.2,2.2-2.2,2.2-2.2"/>
		<path class="st5" d="M22.9,29.3c2.2-2.2,2.2-2.2,2.2-2.2"/>
	</g>
</g>
</svg>
