<?xml version="1.0" encoding="utf-8"?>
<!-- Generator: Adobe Illustrator 20.1.0, SVG Export Plug-In . SVG Version: 6.00 Build 0)  -->
<svg version="1.1" id="Слой_1" xmlns="http://www.w3.org/2000/svg" xmlns:xlink="http://www.w3.org/1999/xlink" x="0px" y="0px"
	 viewBox="0 0 42.5 42.5" style="enable-background:new 0 0 42.5 42.5;" xml:space="preserve">
<style type="text/css">
	.st0{fill:url(#SVGID_1_);}
	.st1{fill:#F872A3;}
	.st2{fill:#FFFFFF;}
	.st3{fill:#31723E;}
	.st4{fill:#2DAAE1;}
	.st5{fill:#FF0084;}
	.st6{fill:#3C5B9B;}
	.st7{fill:#00AAF1;}
	.st8{fill:#2BB673;}
	.st9{fill:#F16529;}
	.st10{enable-background:new    ;}
	.st11{clip-path:url(#SVGID_3_);fill:#FFFFFF;}
	.st12{clip-path:url(#SVGID_5_);fill:#FFFFFF;}
	.st13{clip-path:url(#SVGID_7_);fill:#FFFFFF;}
	.st14{clip-path:url(#SVGID_9_);fill:#FFFFFF;}
	.st15{fill:#41B2DC;}
	.st16{fill:#DA001C;}
	.st17{fill:#7C0097;}
	.st18{fill:#2A445F;}
	.st19{fill:#A7A9AC;}
	.st20{fill:#0CB3EE;}
	.st21{fill:#394B8D;}
	.st22{fill:#E14E42;}
	.st23{fill:#0173B2;}
	.st24{fill:#69BC1B;}
	.st25{fill:#1CB4EE;}
	.st26{fill:#54675A;}
	.st27{fill:#FF6600;}
	.st28{fill:#B685BF;}
	.st29{fill:#FDC133;}
	.st30{fill:#CB2027;}
	.st31{fill:#2D9AD2;}
	.st32{fill:#F63D27;}
	.st33{fill:#FE3432;}
	.st34{fill:#333230;}
	.st35{fill:#83D1ED;}
	.st36{fill:#A8C46A;}
	.st37{fill:#F75E0E;}
	.st38{fill:#98BF24;}
	.st39{fill:#517FA4;}
	.st40{fill:#004B86;}
	.st41{fill:#195D82;}
	.st42{fill:#546B9F;}
	.st43{fill:#464442;}
	.st44{fill:#EB4721;}
	.st45{fill:#9AC24F;}
	.st46{fill:#FF001A;}
	.st47{fill:#709931;}
	.st48{fill:#A82400;}
	.st49{fill:#343434;}
	.st50{fill:#0072C4;}
	.st51{fill:#376534;}
	.st52{fill:#4CB249;}
	.st53{fill:#F2D040;}
	.st54{fill:#003399;}
	.st55{fill:#7197BF;}
	.st56{fill:#00605E;}
	.st57{fill:#FFA616;}
	.st58{fill:#E3AC3C;}
	.st59{fill:#C96F00;}
	.st60{fill:#F08421;}
	.st61{fill:#4F6EAA;}
	.st62{fill:#CA3C27;}
	.st63{fill:#FF5C06;}
	.st64{fill:#3777E3;}
	.st65{fill:#D20C0C;}
	.st66{fill:#E6501B;}
	.st67{fill:#68C1EC;}
	.st68{fill:#82B641;}
	.st69{fill:#1A9711;}
	.st70{fill:#669C41;}
	.st71{fill:#FCA82E;}
	.st72{fill:#FF6C4C;}
	.st73{fill:#FFC500;}
	.st74{fill:#FE7A15;}
	.st75{fill:#E04D2B;}
	.st76{fill-rule:evenodd;clip-rule:evenodd;fill:#FFFFFF;}
	.st77{fill:#95A2AD;}
	.st78{fill:#5778AD;}
	.st79{clip-path:url(#SVGID_11_);fill:#FFFFFF;}
	.st80{clip-path:url(#SVGID_13_);fill:#FFFFFF;}
	.st81{clip-path:url(#SVGID_15_);fill:#FFFFFF;}
	.st82{clip-path:url(#SVGID_17_);fill:#FFFFFF;}
	.st83{clip-path:url(#SVGID_19_);fill:#FFFFFF;}
	.st84{clip-path:url(#SVGID_21_);fill:#FFFFFF;}
	.st85{clip-path:url(#SVGID_23_);fill:#FFFFFF;}
	.st86{clip-path:url(#SVGID_25_);fill:#FFFFFF;}
	.st87{clip-path:url(#SVGID_27_);fill:#FFFFFF;}
	.st88{clip-path:url(#SVGID_29_);fill:#FFFFFF;}
	.st89{clip-path:url(#SVGID_31_);fill:#FFFFFF;}
	.st90{clip-path:url(#SVGID_33_);fill:#FFFFFF;}
	.st91{clip-path:url(#SVGID_35_);fill:#FFFFFF;}
	.st92{clip-path:url(#SVGID_37_);fill:#FFFFFF;}
	.st93{clip-path:url(#SVGID_39_);fill:#FFFFFF;}
	.st94{clip-path:url(#SVGID_41_);fill:#FFFFFF;}
	.st95{clip-path:url(#SVGID_43_);fill:#FFFFFF;}
	.st96{clip-path:url(#SVGID_45_);fill:#FFFFFF;}
	.st97{clip-path:url(#SVGID_47_);fill:#FFFFFF;}
	.st98{clip-path:url(#SVGID_49_);fill:#FFFFFF;}
	.st99{fill:none;}
	.st100{fill:#86C771;}
	.st101{fill:url(#SVGID_50_);}
	.st102{fill:url(#SVGID_51_);}
	.st103{fill:url(#SVGID_52_);}
	.st104{fill:url(#SVGID_53_);}
	.st105{fill:url(#SVGID_54_);}
	.st106{fill:url(#SVGID_55_);}
	.st107{fill:url(#SVGID_56_);}
</style>
<g>
	<path class="st2" d="M21.3,0C9.5,0,0,9.5,0,21.3C0,33,9.5,42.5,21.3,42.5c11.7,0,21.3-9.5,21.3-21.3C42.5,9.5,33,0,21.3,0z
		 M31.8,15.8c0,0.2,0,0.5,0,0.7c0,7.2-5.5,15.5-15.5,15.5c-3.1,0-5.9-0.9-8.4-2.5c0.4,0.1,0.9,0.1,1.3,0.1c2.6,0,4.9-0.9,6.8-2.3
		c-2.4,0-4.4-1.6-5.1-3.8c0.3,0.1,0.7,0.1,1,0.1c0.5,0,1-0.1,1.4-0.2C10.9,23,9,20.8,9,18.1v-0.1c0.7,0.4,1.6,0.7,2.5,0.7
		c-1.5-1-2.4-2.6-2.4-4.5c0-1,0.3-1.9,0.7-2.7c2.7,3.3,6.7,5.5,11.2,5.7c-0.1-0.4-0.1-0.8-0.1-1.2c0-3,2.4-5.5,5.4-5.5
		c1.6,0,3,0.7,4,1.7c1.2-0.2,2.4-0.7,3.5-1.3c-0.4,1.3-1.3,2.3-2.4,3c1.1-0.1,2.2-0.4,3.1-0.9C33.8,14.1,32.9,15.1,31.8,15.8z"/>
</g>
</svg>
