<?xml version="1.0" encoding="utf-8"?>
<!-- Generator: Adobe Illustrator 20.1.0, SVG Export Plug-In . SVG Version: 6.00 Build 0)  -->
<svg version="1.1" id="Слой_1" xmlns="http://www.w3.org/2000/svg" xmlns:xlink="http://www.w3.org/1999/xlink" x="0px" y="0px"
	 viewBox="0 0 42.5 42.5" style="enable-background:new 0 0 42.5 42.5;" xml:space="preserve">
<style type="text/css">
	.st0{fill:url(#SVGID_1_);}
	.st1{fill:#F872A3;}
	.st2{fill:#FFFFFF;}
	.st3{fill:#31723E;}
	.st4{fill:#2DAAE1;}
	.st5{fill:#FF0084;}
	.st6{fill:#3C5B9B;}
	.st7{fill:#00AAF1;}
	.st8{fill:#2BB673;}
	.st9{fill:#F16529;}
	.st10{enable-background:new    ;}
	.st11{clip-path:url(#SVGID_3_);fill:#FFFFFF;}
	.st12{clip-path:url(#SVGID_5_);fill:#FFFFFF;}
	.st13{clip-path:url(#SVGID_7_);fill:#FFFFFF;}
	.st14{clip-path:url(#SVGID_9_);fill:#FFFFFF;}
	.st15{fill:#41B2DC;}
	.st16{fill:#DA001C;}
	.st17{fill:#7C0097;}
	.st18{fill:#2A445F;}
	.st19{fill:#A7A9AC;}
	.st20{fill:#0CB3EE;}
	.st21{fill:#394B8D;}
	.st22{fill:#E14E42;}
	.st23{fill:#0173B2;}
	.st24{fill:#69BC1B;}
	.st25{fill:#1CB4EE;}
	.st26{fill:#54675A;}
	.st27{fill:#FF6600;}
	.st28{fill:#B685BF;}
	.st29{fill:#FDC133;}
	.st30{fill:#CB2027;}
	.st31{fill:#2D9AD2;}
	.st32{fill:#F63D27;}
	.st33{fill:#FE3432;}
	.st34{fill:#333230;}
	.st35{fill:#83D1ED;}
	.st36{fill:#A8C46A;}
	.st37{fill:#F75E0E;}
	.st38{fill:#98BF24;}
	.st39{fill:#517FA4;}
	.st40{fill:#004B86;}
	.st41{fill:#195D82;}
	.st42{fill:#546B9F;}
	.st43{fill:#464442;}
	.st44{fill:#EB4721;}
	.st45{fill:#9AC24F;}
	.st46{fill:#FF001A;}
	.st47{fill:#709931;}
	.st48{fill:#A82400;}
	.st49{fill:#343434;}
	.st50{fill:#0072C4;}
	.st51{fill:#376534;}
	.st52{fill:#4CB249;}
	.st53{fill:#F2D040;}
	.st54{fill:#003399;}
	.st55{fill:#7197BF;}
	.st56{fill:#00605E;}
	.st57{fill:#FFA616;}
	.st58{fill:#E3AC3C;}
	.st59{fill:#C96F00;}
	.st60{fill:#F08421;}
	.st61{fill:#4F6EAA;}
	.st62{fill:#CA3C27;}
	.st63{fill:#FF5C06;}
	.st64{fill:#3777E3;}
	.st65{fill:#D20C0C;}
	.st66{fill:#E6501B;}
	.st67{fill:#68C1EC;}
	.st68{fill:#82B641;}
	.st69{fill:#1A9711;}
	.st70{fill:#669C41;}
	.st71{fill:#FCA82E;}
	.st72{fill:#FF6C4C;}
	.st73{fill:#FFC500;}
	.st74{fill:#FE7A15;}
	.st75{fill:#E04D2B;}
	.st76{fill-rule:evenodd;clip-rule:evenodd;fill:#FFFFFF;}
	.st77{fill:#95A2AD;}
	.st78{fill:#5778AD;}
	.st79{clip-path:url(#SVGID_11_);fill:#FFFFFF;}
	.st80{clip-path:url(#SVGID_13_);fill:#FFFFFF;}
	.st81{clip-path:url(#SVGID_15_);fill:#FFFFFF;}
	.st82{clip-path:url(#SVGID_17_);fill:#FFFFFF;}
	.st83{clip-path:url(#SVGID_19_);fill:#FFFFFF;}
	.st84{clip-path:url(#SVGID_21_);fill:#FFFFFF;}
	.st85{clip-path:url(#SVGID_23_);fill:#FFFFFF;}
	.st86{clip-path:url(#SVGID_25_);fill:#FFFFFF;}
	.st87{clip-path:url(#SVGID_27_);fill:#FFFFFF;}
	.st88{clip-path:url(#SVGID_29_);fill:#FFFFFF;}
	.st89{clip-path:url(#SVGID_31_);fill:#FFFFFF;}
	.st90{clip-path:url(#SVGID_33_);fill:#FFFFFF;}
	.st91{clip-path:url(#SVGID_35_);fill:#FFFFFF;}
	.st92{clip-path:url(#SVGID_37_);fill:#FFFFFF;}
	.st93{clip-path:url(#SVGID_39_);fill:#FFFFFF;}
	.st94{clip-path:url(#SVGID_41_);fill:#FFFFFF;}
	.st95{clip-path:url(#SVGID_43_);fill:#FFFFFF;}
	.st96{clip-path:url(#SVGID_45_);fill:#FFFFFF;}
	.st97{clip-path:url(#SVGID_47_);fill:#FFFFFF;}
	.st98{clip-path:url(#SVGID_49_);fill:#FFFFFF;}
	.st99{fill:none;}
	.st100{fill:#86C771;}
	.st101{fill:url(#SVGID_50_);}
	.st102{fill:url(#SVGID_51_);}
	.st103{fill:url(#SVGID_52_);}
	.st104{fill:url(#SVGID_53_);}
	.st105{fill:url(#SVGID_54_);}
	.st106{fill:url(#SVGID_55_);}
	.st107{fill:url(#SVGID_56_);}
</style>
<g>
	<path class="st2" d="M16.6,21.3c0-1,0.3-2,0.9-2.7c0.9-1.2,2.2-1.9,3.8-1.9c1.6,0,2.9,0.8,3.8,1.9c0.6,0.8,0.9,1.7,0.9,2.7
		c0,2.6-2.1,4.7-4.7,4.7C18.7,25.9,16.6,23.8,16.6,21.3z"/>
	<polygon class="st2" points="27,15.5 27,11 30.9,11 31.5,11 31.5,15.5 	"/>
	<path class="st2" d="M28,18.5h4v10.9c0,1.4-1.1,2.5-2.6,2.5H13.1c-1.4,0-2.6-1.1-2.6-2.5V18.5h4c-0.3,0.8-0.5,1.8-0.5,2.7
		c0,4,3.3,7.3,7.3,7.3c4,0,7.3-3.3,7.3-7.3C28.5,20.3,28.3,19.4,28,18.5z"/>
	<path class="st2" d="M21.3,0C9.5,0,0,9.5,0,21.3C0,33,9.5,42.5,21.3,42.5c11.7,0,21.3-9.5,21.3-21.3C42.5,9.5,33,0,21.3,0z
		 M34.5,29.4c0,2.8-2.3,5.1-5.1,5.1H13.1c-2.8,0-5.1-2.3-5.1-5.1V13.1C8,10.3,10.3,8,13.1,8h16.3c2.8,0,5.1,2.3,5.1,5.1V29.4z"/>
</g>
</svg>
