<?xml version="1.0" encoding="utf-8"?>
<!-- Generator: Adobe Illustrator 20.1.0, SVG Export Plug-In . SVG Version: 6.00 Build 0)  -->
<svg version="1.1" id="Layer_1" xmlns="http://www.w3.org/2000/svg" xmlns:xlink="http://www.w3.org/1999/xlink" x="0px" y="0px"
	 viewBox="0 0 653.8 212" style="enable-background:new 0 0 653.8 212;" xml:space="preserve">
<style type="text/css">
	.st0{fill:#12281C;}
	.st1{fill:#CCCCCC;}
</style>
<g>
	<g>
		<path class="st1" d="M245.1,143.3c-0.1,1.1-0.1,2.2-0.1,3.4v6.1c0,2.3,0.1,3.5,0.2,3.8c0.1,0.2,0.5,0.4,1.2,0.4h0.8v0.7
			c-1.3,0-2.4-0.1-3.2-0.1c-0.9,0-2,0-3.2,0.1V157h0.9c0.5,0,0.8-0.1,0.9-0.2c0.1-0.1,0.2-0.4,0.3-0.7c0.1-0.8,0.1-1.9,0.1-3.3v-6.2
			c0-1.2,0-2.3-0.1-3.3h-1.1c-1.8,0-2.7,0-2.9,0.1c-0.2,0.1-0.3,0.4-0.4,1l-0.2,1.4h-0.7l0-1.3c0-0.5,0-1.3-0.1-2.2
			c3.9,0,6.2,0.1,6.8,0.1l6-0.1c-0.1,1.2-0.2,2.4-0.2,3.5h-0.7l-0.1-1.4c0-0.5-0.1-0.8-0.2-0.9s-0.3-0.1-0.5-0.2
			c-0.8-0.1-1.7-0.1-2.7-0.1H245.1z"/>
		<path class="st1" d="M262.4,149c1.5,0.1,2.7,0.5,3.3,1.1c0.7,0.6,1,1.5,1,2.6c0,1.4-0.6,2.6-1.7,3.6s-2.6,1.5-4.4,1.5l-0.9,0
			c-0.7,0-1.3-0.1-1.8-0.1c-0.4,0-0.8,0-1.3,0l-0.9,0v-0.5c0.4-0.2,0.7-0.4,0.8-0.5c0.1-0.1,0.1-0.3,0.1-0.6c0-0.9,0.1-1.8,0.1-2.9
			v-6.7c0-1.8-0.1-2.8-0.2-3.1c-0.2-0.3-0.5-0.4-1.2-0.4h-0.7v-0.7h0.9l1,0c0.5,0,0.9,0,1.2,0c0.5,0,1.3,0,2.7-0.1l1.6,0
			c1.2,0,2.2,0.2,2.8,0.6c0.8,0.5,1.2,1.3,1.2,2.3c0,0.8-0.3,1.5-0.8,2.2C264.6,148,263.7,148.6,262.4,149z M258.8,148.7
			c0.4,0,0.7,0,1,0c1.4,0,2.5-0.3,3.1-0.8s0.9-1.2,0.9-2.2c0-0.8-0.3-1.5-0.8-1.9c-0.5-0.4-1.3-0.7-2.5-0.7c-0.5,0-1,0-1.6,0.1
			c-0.1,0.9-0.1,2.2-0.1,4V148.7z M258.8,156.6c0.7,0.1,1.2,0.2,1.7,0.2c1.3,0,2.3-0.3,3-1c0.7-0.7,1.1-1.6,1.1-2.8
			c0-0.8-0.2-1.4-0.5-1.9c-0.3-0.5-0.7-0.9-1.3-1.1c-0.6-0.2-1.4-0.4-2.7-0.4c-0.4,0-0.8,0-1.2,0v3.8l0,1.4c0,0.5,0,0.9,0,1.1
			C258.9,156.1,258.8,156.3,258.8,156.6z"/>
		<path class="st1" d="M271.4,150c0-2.4,0.8-4.3,2.3-5.7c1.5-1.4,3.6-2.2,6.1-2.2c2.5,0,4.4,0.7,5.9,2c1.4,1.3,2.1,3.1,2.1,5.3
			c0,2.4-0.8,4.4-2.5,6c-1.6,1.6-3.7,2.4-6.2,2.4c-1.6,0-2.9-0.3-4-0.9c-1.1-0.6-2-1.6-2.7-2.8C271.7,152.9,271.4,151.6,271.4,150z
			 M273.6,149.1c0,1.6,0.3,3,0.8,4.2s1.3,2.1,2.2,2.7c0.9,0.6,2,0.9,3.2,0.9c1.1,0,2.1-0.3,2.9-0.8c0.8-0.5,1.5-1.3,2-2.3
			c0.5-1,0.7-2.2,0.7-3.7c0-1.5-0.3-2.8-0.8-3.9c-0.5-1.1-1.3-1.9-2.2-2.4c-0.9-0.5-2-0.8-3.3-0.8c-1.2,0-2.1,0.2-3,0.7
			c-0.8,0.5-1.5,1.2-2,2.1S273.6,147.9,273.6,149.1z"/>
		<path class="st1" d="M296.4,143.5c-0.1,1-0.1,2.1-0.1,3.3v6.2c0,2.2,0.1,3.4,0.2,3.6c0.1,0.3,0.6,0.4,1.3,0.4h0.7v0.7
			c-1.3,0-2.3-0.1-3-0.1c-0.6,0-1.8,0-3.4,0.1V157h1c0.5,0,0.7-0.1,0.9-0.2c0.1-0.1,0.2-0.3,0.2-0.7c0-0.3,0.1-1.4,0.1-3.1v-5.8
			l0-2.2c0-0.9-0.1-1.5-0.3-1.7c-0.2-0.2-0.6-0.3-1.3-0.3H292v-0.7c0.9,0,2,0.1,3.4,0.1c0.8,0,1.7,0,2.7-0.1c0.7,0,1.2,0,1.5,0
			c1.7,0,3,0.3,3.8,0.9c0.8,0.6,1.2,1.5,1.2,2.6c0,0.8-0.2,1.5-0.7,2.3c-0.5,0.7-1.1,1.3-1.9,1.7s-1.7,0.7-2.7,0.7
			c-0.4,0-1-0.1-1.6-0.2l-0.2-0.8c0.6,0.2,1.2,0.2,1.6,0.2c1,0,1.8-0.3,2.4-0.9c0.6-0.6,0.9-1.4,0.9-2.5c0-1-0.3-1.8-0.9-2.4
			c-0.6-0.6-1.5-0.8-2.8-0.8C297.9,143.1,297.2,143.2,296.4,143.5z"/>
		<path class="st1" d="M320.3,151c-1.7,0.5-3.1,0.8-4.2,0.8c-0.9,0-1.8-0.1-2.6-0.4c-0.8-0.3-1.5-0.8-2-1.4
			c-0.6-0.7-0.9-1.7-0.9-3.2c0-1.7,0-2.7-0.1-3.1s-0.5-0.6-1.3-0.6h-0.8v-0.7c1.1,0,2.1,0.1,3.1,0.1c1.3,0,2.4,0,3.3-0.1v0.7h-0.5
			c-0.7,0-1.2,0.1-1.3,0.3c-0.2,0.2-0.2,0.7-0.2,1.5c0,1.9,0.1,3.1,0.2,3.7c0.1,0.6,0.5,1.1,1.2,1.6c0.7,0.5,1.5,0.7,2.5,0.7
			c0.9,0,2.2-0.2,3.7-0.6c0-4.1-0.1-6.3-0.2-6.6c-0.1-0.3-0.5-0.5-1.3-0.5H318v-0.7c0.9,0,2,0.1,3.3,0.1c1,0,2.1,0,3.2-0.1v0.7h-0.8
			c-0.8,0-1.2,0.2-1.3,0.5c-0.1,0.3-0.1,1.5-0.1,3.5v6c0,2.1,0.1,3.3,0.2,3.6c0.1,0.3,0.5,0.4,1.2,0.4h0.8v0.7
			c-0.9,0-1.9-0.1-3.1-0.1c-1.4,0-2.6,0-3.6,0.1V157h0.7c0.5,0,0.8-0.1,1.1-0.2c0.2-0.1,0.4-0.3,0.4-0.4c0.1-0.2,0.1-0.7,0.1-1.6
			s0-1.6,0-1.9V151z"/>
		<path class="st1" d="M333.1,150.3v2.6l0,1.5c0,1,0,1.6,0,2.1c1.1,0.1,2.2,0.1,3.4,0.1c0.8,0,1.5,0,2-0.1c0.4,0,0.7-0.1,1.1-0.3
			c0.2-0.6,0.4-1.4,0.6-2.4h0.7c-0.2,1.6-0.3,2.6-0.3,3.2l0,0.5c-0.8,0.1-1.6,0.1-2.4,0.1l-1.7,0c-1.9,0-3.2-0.1-4.1-0.1
			c-0.8,0-2,0-3.4,0.1V157h0.3c0.6,0,1-0.1,1.2-0.2c0.2-0.1,0.3-0.4,0.3-0.9c0.1-0.5,0.1-1.5,0.1-3V147c0-1,0-1.8-0.1-2.4
			c0-0.6-0.1-1-0.2-1.1c-0.1-0.1-0.1-0.2-0.2-0.3c-0.1-0.1-0.4-0.1-0.9-0.2l-0.8-0.1v-0.7h1.2l1.1,0c0.6,0,1.1,0,1.5,0l4.1-0.1l2,0
			c0.7,0,1.3,0,2,0.1c-0.3,0.9-0.4,2-0.5,3.3h-0.7c0-0.8,0-1.4-0.1-2c-0.8-0.3-1.9-0.5-3.1-0.5c-1,0-2,0-3.1,0.1c0,0.7,0,1.3,0,2
			l0,1.7v2.2c0.7,0.1,1.3,0.1,1.9,0.1c1.7,0,2.7-0.1,2.9-0.2c0.2-0.1,0.3-0.5,0.3-1.1v-0.7h0.7c-0.1,1.1-0.1,2-0.1,2.6
			c0,0.7,0,1.5,0.1,2.4h-0.7v-0.6c0-0.7-0.1-1.1-0.4-1.3c-0.3-0.2-1.2-0.2-2.9-0.2C334.4,150.3,333.8,150.3,333.1,150.3z"/>
		<path class="st1" d="M358.9,146.2l-0.1-1.9c-0.6-0.4-1.3-0.7-2-0.9c-0.7-0.2-1.4-0.3-2.2-0.3c-1.9,0-3.5,0.6-4.7,1.8
			s-1.8,2.8-1.8,4.7c0,1.4,0.3,2.6,0.9,3.7c0.6,1.1,1.4,1.9,2.5,2.6c1.1,0.6,2.2,0.9,3.5,0.9c1,0,1.9-0.1,2.9-0.3
			c0.7-0.2,1.4-0.5,2.1-1l0.2,0.2c-0.2,0.3-0.3,0.7-0.4,1c-0.8,0.4-1.7,0.7-2.5,0.9s-1.7,0.3-2.6,0.3c-1.8,0-3.3-0.3-4.7-1
			c-1.3-0.7-2.4-1.6-3.1-2.8c-0.7-1.2-1.1-2.6-1.1-4.1s0.4-2.9,1.1-4.1c0.7-1.2,1.8-2.1,3.1-2.8s3-1,4.9-1c1,0,2.2,0.2,3.6,0.5
			c0.7,0.2,1.2,0.3,1.6,0.4c-0.3,0.8-0.5,1.9-0.6,3.3H358.9z"/>
		<path class="st1" d="M370.8,149.2l7.4,6.8l0.7,0.6c0.1,0.1,0.3,0.2,0.4,0.3c0.1,0,0.4,0.1,0.7,0.1v0.7c-0.6,0-1.1-0.1-1.6-0.1
			c-0.5,0-1,0-1.5,0.1l-7.4-7.1c-0.3-0.2-0.4-0.4-0.5-0.4c-0.2,0-0.2,0.1-0.2,0.4v3.3c0,1.6,0,2.5,0.1,2.6c0.1,0.3,0.5,0.4,1.2,0.4
			h0.8v0.7c-1.2,0-2.2-0.1-3.1-0.1c-1,0-2,0-3.1,0.1V157h0.9c0.6,0,0.9-0.1,1-0.3s0.2-1.1,0.2-2.7v-7.2c0-2-0.1-3.1-0.2-3.3
			s-0.5-0.4-1-0.4h-0.9v-0.7c1.3,0,2.3,0.1,2.9,0.1c0.4,0,1.5,0,3.3-0.1v0.7l-0.9,0c-0.5,0-0.8,0.1-0.9,0.2
			c-0.1,0.1-0.2,0.3-0.2,0.7c0,0.3,0,1.3,0,2.9v2.9h0.2c0.6-0.5,1.1-0.9,1.5-1.3c0.4-0.4,1.1-1.1,2.1-2.1l3.1-3.2v-0.8
			c0.8,0,1.4,0.1,2,0.1c0.5,0,1.1,0,1.8-0.1v0.7h-0.6c-0.5,0-1,0.1-1.3,0.3c-0.4,0.2-1.2,0.9-2.5,2.1L370.8,149.2z"/>
		<path class="st1" d="M383.9,150c0-2.4,0.8-4.3,2.3-5.7c1.5-1.4,3.6-2.2,6.1-2.2c2.5,0,4.4,0.7,5.9,2c1.4,1.3,2.1,3.1,2.1,5.3
			c0,2.4-0.8,4.4-2.5,6c-1.6,1.6-3.7,2.4-6.2,2.4c-1.6,0-2.9-0.3-4-0.9c-1.1-0.6-2-1.6-2.7-2.8C384.2,152.9,383.9,151.6,383.9,150z
			 M386,149.1c0,1.6,0.3,3,0.8,4.2s1.3,2.1,2.2,2.7c0.9,0.6,2,0.9,3.2,0.9c1.1,0,2.1-0.3,2.9-0.8c0.8-0.5,1.5-1.3,2-2.3
			c0.5-1,0.7-2.2,0.7-3.7c0-1.5-0.3-2.8-0.8-3.9c-0.5-1.1-1.3-1.9-2.2-2.4c-0.9-0.5-2-0.8-3.3-0.8c-1.2,0-2.1,0.2-3,0.7
			c-0.8,0.5-1.5,1.2-2,2.1S386,147.9,386,149.1z"/>
		<path class="st1" d="M408.9,150.3v2.6l0,1.5c0,1,0,1.6,0,2.1c1.1,0.1,2.2,0.1,3.4,0.1c0.8,0,1.5,0,2-0.1c0.4,0,0.7-0.1,1.1-0.3
			c0.2-0.6,0.4-1.4,0.6-2.4h0.7c-0.2,1.6-0.3,2.6-0.3,3.2l0,0.5c-0.8,0.1-1.6,0.1-2.4,0.1l-1.7,0c-1.9,0-3.2-0.1-4.1-0.1
			c-0.8,0-2,0-3.4,0.1V157h0.3c0.6,0,1-0.1,1.2-0.2c0.2-0.1,0.3-0.4,0.3-0.9c0.1-0.5,0.1-1.5,0.1-3V147c0-1,0-1.8-0.1-2.4
			c0-0.6-0.1-1-0.2-1.1c-0.1-0.1-0.1-0.2-0.2-0.3c-0.1-0.1-0.4-0.1-0.9-0.2l-0.8-0.1v-0.7h1.2l1.1,0c0.6,0,1.1,0,1.5,0l4.1-0.1l2,0
			c0.7,0,1.3,0,2,0.1c-0.3,0.9-0.4,2-0.5,3.3h-0.7c0-0.8,0-1.4-0.1-2c-0.8-0.3-1.9-0.5-3.1-0.5c-1,0-2,0-3.1,0.1c0,0.7,0,1.3,0,2
			l0,1.7v2.2c0.7,0.1,1.3,0.1,1.9,0.1c1.7,0,2.7-0.1,2.9-0.2c0.2-0.1,0.3-0.5,0.3-1.1v-0.7h0.7c-0.1,1.1-0.1,2-0.1,2.6
			c0,0.7,0,1.5,0.1,2.4h-0.7v-0.6c0-0.7-0.1-1.1-0.4-1.3c-0.3-0.2-1.2-0.2-2.9-0.2C410.2,150.3,409.6,150.3,408.9,150.3z"/>
		<path class="st1" d="M226.8,183.5h0.7c0.7,0,1.1-0.1,1.3-0.4c0.1-0.3,0.2-1.5,0.2-3.7v-5.9c0-0.4,0-1.6-0.1-3.6
			c-0.6-0.1-1.8-0.1-3.5-0.1c-2.4,0-4,0-4.8,0.1c-0.1,1.1-0.1,2.1-0.1,3.2v6.5c0,0.5,0,1.1,0.1,1.8l0.1,1.2c0,0.4,0.1,0.7,0.4,0.8
			c0.3,0.1,0.5,0.1,0.8,0.1h0.7v0.7c-0.9,0-1.8-0.1-2.7-0.1c-0.9,0-2.1,0-3.6,0.1v-0.7h0.7c0.8,0,1.2-0.1,1.4-0.4
			c0.1-0.3,0.2-1.5,0.2-3.5v-6.5c0-1.8-0.1-2.9-0.2-3.1c-0.1-0.3-0.5-0.4-1.2-0.4h-0.8v-0.7c4.6,0,7.6,0.1,9,0.1c0.9,0,3.6,0,8-0.1
			v0.7h-0.8c-0.8,0-1.2,0.2-1.3,0.5s-0.1,1.5-0.1,3.5v6c0,2.1,0.1,3.3,0.2,3.6s0.5,0.5,1.2,0.5h0.8v0.7c-0.9,0-1.9-0.1-3.1-0.1
			c-1.2,0-2.4,0-3.3,0.1V183.5z"/>
		<path class="st1" d="M241.9,170c-0.1,1-0.1,2.1-0.1,3.3v6.2c0,2.2,0.1,3.4,0.2,3.6c0.1,0.3,0.6,0.4,1.3,0.4h0.7v0.7
			c-1.3,0-2.3-0.1-3-0.1c-0.6,0-1.8,0-3.4,0.1v-0.7h1c0.5,0,0.7-0.1,0.9-0.2c0.1-0.1,0.2-0.3,0.2-0.7c0-0.3,0.1-1.4,0.1-3.1v-5.8
			l0-2.2c0-0.9-0.1-1.5-0.3-1.7c-0.2-0.2-0.6-0.3-1.3-0.3h-0.5v-0.7c0.9,0,2,0.1,3.4,0.1c0.8,0,1.7,0,2.7-0.1c0.7,0,1.2,0,1.5,0
			c1.7,0,3,0.3,3.8,0.9c0.8,0.6,1.2,1.5,1.2,2.6c0,0.8-0.2,1.5-0.7,2.3c-0.5,0.7-1.1,1.3-1.9,1.7s-1.7,0.7-2.7,0.7
			c-0.4,0-1-0.1-1.6-0.2l-0.2-0.8c0.6,0.2,1.2,0.2,1.6,0.2c1,0,1.8-0.3,2.4-0.9c0.6-0.6,0.9-1.4,0.9-2.5c0-1-0.3-1.8-0.9-2.4
			c-0.6-0.6-1.5-0.8-2.8-0.8C243.5,169.6,242.7,169.7,241.9,170z"/>
		<path class="st1" d="M254.2,176.5c0-2.4,0.8-4.3,2.3-5.7c1.5-1.4,3.6-2.2,6.1-2.2c2.5,0,4.4,0.7,5.9,2c1.4,1.3,2.1,3.1,2.1,5.3
			c0,2.4-0.8,4.4-2.5,6c-1.6,1.6-3.7,2.4-6.2,2.4c-1.6,0-2.9-0.3-4-0.9c-1.1-0.6-2-1.6-2.7-2.8C254.5,179.4,254.2,178,254.2,176.5z
			 M256.4,175.6c0,1.6,0.3,3,0.8,4.2s1.3,2.1,2.2,2.7c0.9,0.6,2,0.9,3.2,0.9c1.1,0,2.1-0.3,2.9-0.8c0.8-0.5,1.5-1.3,2-2.3
			c0.5-1,0.7-2.2,0.7-3.7c0-1.5-0.3-2.8-0.8-3.9c-0.5-1.1-1.3-1.9-2.2-2.4c-0.9-0.5-2-0.8-3.3-0.8c-1.2,0-2.1,0.2-3,0.7
			c-0.8,0.5-1.5,1.2-2,2.1S256.4,174.4,256.4,175.6z"/>
		<path class="st1" d="M288.2,172.7l-0.1-1.9c-0.6-0.4-1.3-0.7-2-0.9c-0.7-0.2-1.4-0.3-2.2-0.3c-1.9,0-3.5,0.6-4.7,1.8
			s-1.8,2.8-1.8,4.7c0,1.4,0.3,2.6,0.9,3.7c0.6,1.1,1.4,1.9,2.5,2.6c1.1,0.6,2.2,0.9,3.5,0.9c1,0,1.9-0.1,2.9-0.3
			c0.7-0.2,1.4-0.5,2.1-1l0.2,0.2c-0.2,0.3-0.3,0.7-0.4,1c-0.8,0.4-1.7,0.7-2.5,0.9s-1.7,0.3-2.6,0.3c-1.8,0-3.3-0.3-4.7-1
			c-1.3-0.7-2.4-1.6-3.1-2.8c-0.7-1.2-1.1-2.6-1.1-4.1s0.4-2.9,1.1-4.1c0.7-1.2,1.8-2.1,3.1-2.8s3-1,4.9-1c1,0,2.2,0.2,3.6,0.5
			c0.7,0.2,1.2,0.3,1.6,0.4c-0.3,0.8-0.5,1.9-0.6,3.3H288.2z"/>
		<path class="st1" d="M301.3,169.8c-0.1,1.1-0.1,2.2-0.1,3.4v6.1c0,2.3,0.1,3.5,0.2,3.8c0.1,0.2,0.5,0.4,1.2,0.4h0.8v0.7
			c-1.3,0-2.4-0.1-3.2-0.1c-0.9,0-2,0-3.2,0.1v-0.7h0.9c0.5,0,0.8-0.1,0.9-0.2c0.1-0.1,0.2-0.4,0.3-0.7c0.1-0.8,0.1-1.9,0.1-3.3
			v-6.2c0-1.2,0-2.3-0.1-3.3h-1.1c-1.8,0-2.7,0-2.9,0.1c-0.2,0.1-0.3,0.4-0.4,1l-0.2,1.4h-0.7l0-1.3c0-0.5,0-1.3-0.1-2.2
			c3.9,0,6.2,0.1,6.8,0.1l6-0.1c-0.1,1.2-0.2,2.4-0.2,3.5h-0.7l-0.1-1.4c0-0.5-0.1-0.8-0.2-0.9s-0.3-0.1-0.5-0.2
			c-0.8-0.1-1.7-0.1-2.7-0.1H301.3z"/>
		<path class="st1" d="M315,170c-0.1,1-0.1,2.1-0.1,3.3v6.2c0,2.2,0.1,3.4,0.2,3.6c0.1,0.3,0.6,0.4,1.3,0.4h0.7v0.7
			c-1.3,0-2.3-0.1-3-0.1c-0.6,0-1.8,0-3.4,0.1v-0.7h1c0.5,0,0.7-0.1,0.9-0.2c0.1-0.1,0.2-0.3,0.2-0.7c0-0.3,0.1-1.4,0.1-3.1v-5.8
			l0-2.2c0-0.9-0.1-1.5-0.3-1.7c-0.2-0.2-0.6-0.3-1.3-0.3h-0.5v-0.7c0.9,0,2,0.1,3.4,0.1c0.8,0,1.7,0,2.7-0.1c0.7,0,1.2,0,1.5,0
			c1.7,0,3,0.3,3.8,0.9c0.8,0.6,1.2,1.5,1.2,2.6c0,0.8-0.2,1.5-0.7,2.3c-0.5,0.7-1.1,1.3-1.9,1.7s-1.7,0.7-2.7,0.7
			c-0.4,0-1-0.1-1.6-0.2l-0.2-0.8c0.6,0.2,1.2,0.2,1.6,0.2c1,0,1.8-0.3,2.4-0.9c0.6-0.6,0.9-1.4,0.9-2.5c0-1-0.3-1.8-0.9-2.4
			c-0.6-0.6-1.5-0.8-2.8-0.8C316.6,169.6,315.8,169.7,315,170z"/>
		<path class="st1" d="M338.2,179h-6.2l-0.7,1.7c-0.5,1.1-0.7,1.9-0.7,2.1c0,0.2,0,0.3,0.1,0.4c0.1,0.1,0.3,0.1,0.7,0.2l1,0.1v0.7
			c-0.7,0-1.5-0.1-2.3-0.1c-1,0-1.9,0-2.7,0.1v-0.7l0.3,0c0.5,0,0.8-0.1,1-0.2s0.3-0.3,0.5-0.7c0.5-1,1-2.2,1.6-3.4l3-6.7
			c0.8-1.8,1.3-3.1,1.6-3.9h0.7l5.5,12.7c0.4,0.9,0.6,1.4,0.7,1.6c0.1,0.2,0.3,0.3,0.4,0.4c0.2,0.1,0.5,0.1,1.1,0.2v0.7
			c-0.9,0-1.8-0.1-2.7-0.1c-0.8,0-1.8,0-3.2,0.1v-0.7l1.1-0.1c0.4,0,0.6-0.1,0.7-0.1c0.1-0.1,0.2-0.2,0.2-0.3c0-0.1-0.1-0.5-0.3-1
			L338.2,179z M332.3,178.1h5.4l-2.7-6.5L332.3,178.1z"/>
		<path class="st1" d="M352,176.5v3c0,0.5,0,1.1,0.1,1.8c0,1,0.1,1.5,0.1,1.6s0.1,0.2,0.3,0.3s0.5,0.2,0.9,0.2h0.7v0.7
			c-0.9,0-1.8-0.1-2.7-0.1c-0.8,0-2,0-3.6,0.1v-0.7h0.7c0.8,0,1.2-0.1,1.3-0.4s0.2-1.4,0.2-3.5v-6.5c0-1.9-0.1-3-0.2-3.2
			c-0.1-0.3-0.5-0.4-1.2-0.4h-0.8v-0.7c1.2,0,2.3,0.1,3.3,0.1c1,0,2,0,3-0.1v0.7h-0.5c-0.7,0-1.1,0.1-1.2,0.2
			c-0.2,0.1-0.3,0.3-0.3,0.5c-0.1,0.4-0.1,1.4-0.1,2.9v2.5c1.3,0.1,2.9,0.1,4.9,0.1c1.7,0,3,0,4.1-0.1v-2.1c0-1.2,0-2.3-0.1-3.1
			c0-0.3-0.1-0.5-0.3-0.6c-0.2-0.1-0.5-0.2-1-0.2h-0.8v-0.7c1.1,0,2.1,0.1,3.1,0.1c1.1,0,2.2,0,3.3-0.1v0.7h-0.8
			c-0.6,0-0.9,0.1-1.1,0.2c-0.2,0.1-0.2,0.3-0.3,0.7s0,1.4,0,3.1v6c0,2.2,0.1,3.4,0.2,3.7s0.5,0.4,1.2,0.4h0.8v0.7
			c-1,0-2-0.1-3.1-0.1c-1.2,0-2.3,0-3.4,0.1v-0.7h0.7c0.5,0,0.9-0.1,1.1-0.2s0.3-0.4,0.3-0.7c0.1-0.7,0.1-1.8,0.1-3.2v-2.8
			c-1,0-2.3-0.1-3.9-0.1C354.9,176.5,353.2,176.5,352,176.5z"/>
		<path class="st1" d="M382.9,172.7l-0.1-1.9c-0.6-0.4-1.3-0.7-2-0.9c-0.7-0.2-1.4-0.3-2.2-0.3c-1.9,0-3.5,0.6-4.7,1.8
			s-1.8,2.8-1.8,4.7c0,1.4,0.3,2.6,0.9,3.7c0.6,1.1,1.4,1.9,2.5,2.6c1.1,0.6,2.2,0.9,3.5,0.9c1,0,1.9-0.1,2.9-0.3
			c0.7-0.2,1.4-0.5,2.1-1l0.2,0.2c-0.2,0.3-0.3,0.7-0.4,1c-0.8,0.4-1.7,0.7-2.5,0.9s-1.7,0.3-2.6,0.3c-1.8,0-3.3-0.3-4.7-1
			c-1.3-0.7-2.4-1.6-3.1-2.8c-0.7-1.2-1.1-2.6-1.1-4.1s0.4-2.9,1.1-4.1c0.7-1.2,1.8-2.1,3.1-2.8s3-1,4.9-1c1,0,2.2,0.2,3.6,0.5
			c0.7,0.2,1.2,0.3,1.6,0.4c-0.3,0.8-0.5,1.9-0.6,3.3H382.9z"/>
		<path class="st1" d="M395.9,169.8c-0.1,1.1-0.1,2.2-0.1,3.4v6.1c0,2.3,0.1,3.5,0.2,3.8c0.1,0.2,0.5,0.4,1.2,0.4h0.8v0.7
			c-1.3,0-2.4-0.1-3.2-0.1c-0.9,0-2,0-3.2,0.1v-0.7h0.9c0.5,0,0.8-0.1,0.9-0.2c0.1-0.1,0.2-0.4,0.3-0.7c0.1-0.8,0.1-1.9,0.1-3.3
			v-6.2c0-1.2,0-2.3-0.1-3.3h-1.1c-1.8,0-2.7,0-2.9,0.1c-0.2,0.1-0.3,0.4-0.4,1l-0.2,1.4h-0.7l0-1.3c0-0.5,0-1.3-0.1-2.2
			c3.9,0,6.2,0.1,6.8,0.1l6-0.1c-0.1,1.2-0.2,2.4-0.2,3.5h-0.7l-0.1-1.4c0-0.5-0.1-0.8-0.2-0.9s-0.3-0.1-0.5-0.2
			c-0.8-0.1-1.7-0.1-2.7-0.1H395.9z"/>
		<path class="st1" d="M413.1,175.5c1.5,0.1,2.7,0.5,3.3,1.1c0.7,0.6,1,1.5,1,2.6c0,1.4-0.6,2.6-1.7,3.6s-2.6,1.5-4.4,1.5l-0.9,0
			c-0.7,0-1.3-0.1-1.8-0.1c-0.4,0-0.8,0-1.3,0l-0.9,0v-0.5c0.4-0.2,0.7-0.4,0.8-0.5c0.1-0.1,0.1-0.3,0.1-0.6c0-0.9,0.1-1.8,0.1-2.9
			V173c0-1.8-0.1-2.8-0.2-3.1c-0.2-0.3-0.5-0.4-1.2-0.4h-0.7v-0.7h0.9l1,0c0.5,0,0.9,0,1.2,0c0.5,0,1.3,0,2.7-0.1l1.6,0
			c1.2,0,2.2,0.2,2.8,0.6c0.8,0.5,1.2,1.3,1.2,2.3c0,0.8-0.3,1.5-0.8,2.2C415.4,174.5,414.4,175.1,413.1,175.5z M409.5,175.2
			c0.4,0,0.7,0,1,0c1.4,0,2.5-0.3,3.1-0.8s0.9-1.2,0.9-2.2c0-0.8-0.3-1.5-0.8-1.9c-0.5-0.4-1.3-0.7-2.5-0.7c-0.5,0-1,0-1.6,0.1
			c-0.1,0.9-0.1,2.2-0.1,4V175.2z M409.5,183.1c0.7,0.1,1.2,0.2,1.7,0.2c1.3,0,2.3-0.3,3-1c0.7-0.7,1.1-1.6,1.1-2.8
			c0-0.8-0.2-1.4-0.5-1.9c-0.3-0.5-0.7-0.9-1.3-1.1c-0.6-0.2-1.4-0.4-2.7-0.4c-0.4,0-0.8,0-1.2,0v3.8l0,1.4c0,0.5,0,0.9,0,1.1
			C409.6,182.6,409.6,182.8,409.5,183.1z"/>
		<path class="st1" d="M422.1,176.5c0-2.4,0.8-4.3,2.3-5.7c1.5-1.4,3.6-2.2,6.1-2.2c2.5,0,4.4,0.7,5.9,2c1.4,1.3,2.1,3.1,2.1,5.3
			c0,2.4-0.8,4.4-2.5,6c-1.6,1.6-3.7,2.4-6.2,2.4c-1.6,0-2.9-0.3-4-0.9c-1.1-0.6-2-1.6-2.7-2.8C422.4,179.4,422.1,178,422.1,176.5z
			 M424.3,175.6c0,1.6,0.3,3,0.8,4.2s1.3,2.1,2.2,2.7c0.9,0.6,2,0.9,3.2,0.9c1.1,0,2.1-0.3,2.9-0.8c0.8-0.5,1.5-1.3,2-2.3
			c0.5-1,0.7-2.2,0.7-3.7c0-1.5-0.3-2.8-0.8-3.9c-0.5-1.1-1.3-1.9-2.2-2.4c-0.9-0.5-2-0.8-3.3-0.8c-1.2,0-2.1,0.2-3,0.7
			c-0.8,0.5-1.5,1.2-2,2.1S424.3,174.4,424.3,175.6z"/>
	</g>
	<g>
		<g>
			<circle class="st1" cx="185.9" cy="160.5" r="8.5"/>
		</g>
	</g>
	<g>
		<g>
			<circle class="st1" cx="465" cy="160.5" r="8.5"/>
		</g>
	</g>
</g>
<g>
	<g>
		<path class="st1" d="M94.5,83.8c-4.5,0.7-12.6,0.9-12.6,0.9c-0.3,0.5,5.8,11.9,11.9,24.4c1.8,3.7,4.4,7.4,7.6,10.8
			c4.2,4.5,8,6.6,11,6.1c3.6-0.5,6.5-4.8,7.6-12.2c0.3-1.7,0.5-2.7,1-2.8c0.5-0.1,0.9,0.4,1.3,1.3c0.4,1,0.6,1.6,0.6,2
			c0.3,2.1-0.6,5.1-2.5,8.8c-2.6,5.1-5.7,8-9.5,8.6c-3.8,0.6-7.6-0.8-11.4-4.1c-3.8-3.3-8-9.7-12.7-19.2c-4.7-9.5-7.3-15.6-7.8-18.3
			c-0.1-0.4,0-1,0-1c-0.2-0.1-14.4,25.7-18.2,30.8C52.3,131.3,43,138,32.6,140.1c-7.3,1.5-11.6-0.5-12.7-5.9
			c-0.6-2.7-0.3-5.9,0.8-9.5c1.1-3.6,2.6-6.9,4.7-9.9c2-3,4.1-4.7,6-5c0.4-0.1,0.5,0,0.6,0.2c0.1,0.4-0.8,1.7-2.7,3.8
			c-1.9,2.1-3.5,5-4.9,8.5c-1.4,3.5-1.8,6.5-1.3,9.1c0.9,4.5,5.3,6.6,10.6,4.9c18.4-5.9,31.2-30.4,41-48.7c0.9-1.6,1.7-2.8,2.4-3.6
			c-0.9-0.2-1.4-0.3-2.3-0.4c-1.1,0.6-2,1-2.7,1.1c-1.9,0.3-2.9-0.3-3.2-1.7c-0.3-2,0.9-3.5,3.5-4.5c0.3-0.1,0.7-0.2,0.9-0.3
			c1.6-0.3,5.3,1.6,6,1.4c3.8-1,10-14.6,10.1-14.8c5.6-7.4,9.7-11.3,12-11.6c2.3-0.3,3.6,0.4,3.9,2.3c0.1,0.9,0,1.7-0.3,2.5
			c-0.3,0.8-0.8,1.2-1.3,1.4c-0.5,0.1-0.8,0-0.9-0.7c0-0.3,0.5-1.1,0.6-1.7c0.2-0.8-0.6-1.8-1.5-1.6c-2.9,0.4-17.7,25-17.7,25
			c0.2,0.3,5-0.5,6.8-0.8c20.8-3.2,33.2-10,37.1-21c0.8-2.3,1.1-4.5,0.9-6.4c-0.5-3.8-2.7-6.8-6.7-9.1c-6.4-3.7-16.3-4.7-29.6-2.7
			c-13.2,2-26.3,7.3-38.8,15.9c-15.2,10.5-21.7,21-19.7,31.3c0.6,3.3,3.1,4.6,7.5,3.7c4.4-0.8,8.7-3.2,13.1-7.1
			c4.4-3.9,7.2-7.6,8.4-10.8c0.4-1.2,1-1.9,1.5-2c0.6-0.1,0.8,0.2,0.6,0.9c-1,5-4,9.8-9.2,14.2c-5.3,4.4-11,7.2-17.3,8.4
			c-6.3,1.2-9.8-0.1-10.6-3.9c0-0.3-0.1-0.6-0.2-0.9c-1.4-10.7,4.5-22.3,16.3-32.5c11.8-10.2,27.3-16.9,46.2-19.7
			c17.6-2.6,30.5-1.4,38.5,3.4c4.8,2.9,7.5,6.7,8.1,11.3c0.2,2,0,4.2-0.7,6.6c-2,6.6-7.2,12-15.4,16.2
			C112.8,79.6,104,82.4,94.5,83.8z"/>
	</g>
	<g>
		<path class="st1" d="M130.3,116c-1,0.1-1.9,0.1-2.7,0c-5.6-0.9-9-3.5-9.7-8.1c-0.8-6,2.1-13.5,8.9-22.5
			c6.8-8.9,13.5-13.8,19.8-14.5c2.1-0.2,3.8,0.1,5.2,1c1.4,0.9,2.2,2.2,2.4,3.7c0.5,4.8-2.7,9.9-9.7,15.1c-7,5.3-12.8,8.3-17.5,8.9
			c-0.7,0.1-1.7-0.1-1.9,0c-0.9,0.5-1.3,5-1,7.6c0.6,4.5,3.1,6.4,7.4,5.9c4.3-0.6,9.6-4.3,15.9-10.8c4.7-4.9,9.1-9.9,12.3-15
			c0.7-1.1,1.3-1.7,1.9-1.8c0.6-0.1,0.9,0.2,1,0.7c0.1,0.5-0.2,1.3-0.8,2.3c-4,6.6-9.3,12.7-15.4,18.3
			C140.3,112.3,134.9,115.4,130.3,116z M150.9,75.7c-0.1-1-1.3-1.4-3.6-1.2c-2.3,0.3-5.4,2.3-9.1,6.2c-5.1,5.2-11.6,15.1-11.3,15.7
			c0.1,0.1,1.1,0.1,1.8,0c3.4-0.4,7.6-2.8,12.9-6.9c5.2-4.2,8.2-8.6,9.3-12.7C150.8,76.4,150.9,76,150.9,75.7z"/>
	</g>
	<g>
		<path class="st1" d="M174.3,67.8c2.4-0.2,3.7,0.6,3.9,2.4c0,0.5,0,1.1-0.3,1.6c-5.6,11.1-12,25.9-12,25.9
			c0.9,0.4,31.1-33,35.1-33.7c0.4-0.1,0.8-0.2,1.2-0.2c2.5-0.2,3.9,0.8,4,2.9c0,0.4,0,0.9-0.2,1.3c-0.1,0.4-1.7,3.1-4.8,7.4
			c-3.4,4.8-6.5,9.4-8.9,13.8c-2.3,4.4-3.4,8-3.1,10.7c0.3,2.8,1,4.1,2.2,4c3.9-0.3,10.1-6.7,19-17.4c0.2-0.2,0.4-0.6,0.8-1.2
			c1.1-1.6,2-2.5,2.2-2.5c0.3,0,0.4,0.4,0.5,1.3c0.1,0.9-0.5,2-1.6,3.5c-10.1,13-17.3,19.8-21.8,20.2c-4.3,0.4-6.7-1.7-7.1-6.4
			c-0.4-4.7,0.8-10.2,3.8-16.6c2.9-5.7,4.4-8.6,7.4-14.2c-5.7,4.8-10.7,10.1-15,15.7c-4.2,5.6-8,11-11.3,16.2
			c-3.3,5.2-5.3,7.9-5.9,8c-1.3,0.1-2.4-0.3-3.3-1.3c-0.9-1-1.4-2.3-1.6-3.9c-0.2-1.6,0.2-3.8,1-6.6c0.9-2.8,2-6.2,3.3-10.2
			c-2.9,3.6-4.3,5.4-7.1,9c-1.7,2.1-2.8,3.2-3.3,3.3c-0.5,0.1-0.8-0.2-0.8-0.8c-0.1-0.6,0.2-1.2,0.8-2c2.9-3.6,5.5-7,7.5-10.1
			c2-3.1,6.6-9.4,12.6-18.3C172.6,68.6,173.4,67.9,174.3,67.8z"/>
	</g>
	<g>
		<path class="st1" d="M251.7,63.8C253.4,64,268,39.4,272,39.3c0.6,0,1.5,0.1,2.7,0.5c1.2,0.4,1.8,0.9,1.8,1.7
			c0,0.4-0.2,1.1-0.6,1.7c-6,8.6-12.2,15.3-15.5,19.7c-10.1,13.3-15.3,23.1-16.1,28.7c-0.2,1.2-0.3,2.4-0.2,3.7
			c0.2,3.9,1.9,5.8,5.2,5.6c6.5-0.3,14.7-7.4,24.9-18.9c0.8-0.9,1.6-1.4,2.2-1.6c0.6-0.2,0.9,0,1,0.4c0,0.4-0.2,1-0.8,1.6
			c-10,12.2-18.8,19.4-26.5,21.3c-0.4,0.1-1,0.2-1.8,0.2c-2.7,0.1-4.8-0.7-6.3-2.5c-1.5-1.8-2.3-3.8-2.4-5.9c-0.1-2.4,0.2-5.1,1-8.1
			c-4.1,4.5-6.1,6.7-10.1,11.2c-4.6,4.7-8.2,7.2-11,7.4c-2.8,0.2-5.1-0.4-7.1-1.7c-2.3-1.5-3.6-3.7-3.8-6.6
			c-0.5-6.3,3.4-14.2,12-23.7c8.5-9.4,16.8-14.3,24.5-14.7c2.5-0.1,4.3,0.5,5.4,1.7C250.7,61.3,251.7,63.8,251.7,63.8z M214.2,98.7
			c0.2,3.1,1.4,4.6,3.6,4.4c3.8-0.3,9.7-5.9,18-16.6c1.5-1.9,15-15.2,15-21.3c0-0.5-1.8-1.5-3.3-1.4c-5.6,0.3-12.8,4.8-21.3,13.6
			C217.7,86.3,213.8,93.4,214.2,98.7z"/>
	</g>
	<g>
		<path class="st1" d="M278.6,103.9c-1,0-1.9-0.1-2.7-0.3c-5.5-1.5-8.6-4.4-8.8-9.1c-0.2-6.1,3.4-13.3,11-21.5
			c7.6-8.2,14.7-12.4,21.1-12.5c2.1,0,3.8,0.5,5.1,1.5c1.3,1.1,2,2.4,2,3.9c0.1,4.9-3.7,9.5-11.1,14.1c-7.5,4.6-13.5,7-18.2,7.1
			c-0.7,0-1.7-0.3-1.9-0.2c-0.9,0.4-1.8,4.9-1.7,7.5c0.2,4.5,2.4,6.7,6.8,6.6c4.4-0.1,9.9-3.4,16.8-9.1c5.2-4.4,10-8.9,13.7-13.7
			c0.8-1,1.5-1.6,2.1-1.6c0.6,0,0.9,0.3,0.9,0.8c0,0.5-0.3,1.3-1.1,2.2c-4.6,6.2-10.5,11.7-17.1,16.7
			C288.9,101.2,283.3,103.8,278.6,103.9z M303,65.9c0-1-1.2-1.5-3.5-1.5c-2.3,0-5.5,1.8-9.7,5.3c-5.5,4.6-13,13.9-12.8,14.5
			c0,0.1,1.1,0.2,1.7,0.2c3.4-0.1,7.8-2,13.4-5.6c5.6-3.6,9-7.7,10.5-11.7C302.9,66.6,303,66.2,303,65.9z"/>
	</g>
	<g>
		<path class="st1" d="M314.6,96.2c-1.8,0-6,3.7-7.5,3.7c-2,0-3.1-1-3.1-3.2c0-0.8,0.2-1.7,0.8-2.9c0.5-1.1,1-1.7,1.6-1.7
			c0.8,0,0.9,0.7,0.6,1.9c-0.3,1.2,0.2,2,1.2,1.9c1.1,0,2.3-0.5,3.8-1.6c-2-1.5-3.1-2.2-5.1-3.7c-0.2-0.2-0.3-0.5-0.3-0.9
			c0-0.4,0.4-1.1,1.3-1.9c0.9-0.8,1.6-1.3,2.1-1.3c0.5,0,5.2,4.5,6.5,4.4c5.2-0.5,24.4-23.9,24.4-23.9c-0.1-0.8-12.4-3.2-15.8-3.2
			c-1,0-1.9,0.1-2.8,0.2c-0.9,0.1-1.9,0.7-2.9,1.6c-1,0.9-1.5,1.9-1.5,3.1c0,1.1,0.5,2.1,1.5,2.8c1,0.7,1.5,1.3,1.5,1.8
			c0,0.4-0.3,0.7-1,0.7c-0.7,0-1.8-0.9-3.3-2.6c-1.5-1.7-2.2-3.5-2.2-5.3c0-3,2.3-5.1,6.9-6c2.4-0.5,4.9-0.7,7.5-0.7
			c2.5,0,12.5,5.4,18.7,4.8c0.9-0.1,2.6-1,4.1-1c3.8,0.1,5.7,1.2,5.6,3.4c0,0.9-0.6,1.7-1.8,2.4c-1.2,0.7-2.6,1.1-4.2,1
			c-1.6,0-3.7-1-4.4-1c-5.3,0.2-17.8,13-27.4,24.1c1.9,1.4,2.9,2.2,4.8,3.6c3.8,2.4,8.2,3.6,13.2,3.7c5,0,8.7-0.7,11.1-2.2
			c2.4-1.5,3.6-3.5,3.7-5.9c0-1.1-0.2-2.2-0.6-3.2c-0.4-1,0-1.5,1.2-1.5c0.4,0,0.9,0.5,1.3,1.5c0.4,1,0.6,2.2,0.6,3.6
			c-0.1,3.5-1.8,6.3-5.2,8.5c-3.4,2.2-7.7,3.3-13,3.2c-5.8,0-10.6-1.2-14.4-3.3C320.5,100.3,316.2,96.2,314.6,96.2z"/>
	</g>
	<g>
		<path class="st1" d="M371.6,68.3c5.2,0.2,7.9,0.3,13.1,0.6c5.2,0.2,10.1-0.4,11.2,0.1c0.1,0,0.1,0.2,0.1,0.4
			c-0.1,1.3-3.8,2.5-10.8,3.3c-3.8,0.4-7.5,0.8-10.9,1.3c-3.4,0.5-5.5,0.7-6.5,0.7c-0.9,0-2.5-0.3-4.7-0.7c-2.2-0.4-3.3-1.3-3.2-2.6
			c0-0.9,0.4-1.6,1.2-2.2c0.8-0.6,1.4-0.9,2-0.9c0.5,0,1.1,0,1.6-0.1c1.4,0,2.1,0.1,3.5,0.1C369.3,68.2,370.4,68.3,371.6,68.3z"/>
	</g>
	<g>
		<path class="st1" d="M436.9,68.2c1.3,0.1,1.8,1.6,1.6,4.4c-0.3,4.3-2.8,8.2-7.5,11.7c-4.7,3.5-9.8,5-15.5,4.7
			c-3.6-0.2-7.1-1.3-10.4-3.2c-7-4.1-10.4-11-9.9-20.4c0.3-6.7,2.5-13.2,6.6-19.4c5.7-8.5,13.7-15,24.1-19.5
			c10.4-4.5,20.4-6.3,30-5.5c7,0.6,12.6,2.5,16.7,5.8c4.7,3.7,6.7,8.7,6.1,15c-0.8,8-6.2,20.2-15.7,36.6
			c-9.6,16.4-14.3,25.9-14.4,28.1c-0.1,0.7,0.2,0.9,0.6,0.7c2.4-1.2,13.7-12.3,35-32.3c21.3-20,36.7-31.8,45-36
			c7.4-3.8,13.6-6.6,18.5-8.4c4.9-1.7,9.8-2.2,14.6-1.5c1.3,0.2,2.3,0.4,2.9,0.6c2.4,0.6,3.5,1.9,3.2,4.2c-0.2,1.1-0.7,1.6-1.5,1.5
			c-0.1,0-0.7-0.3-1.8-0.9c-1.1-0.6-2.2-0.9-3-1c-19.8-2.2-41.2,13.6-56.1,25.8c-8.9,7.3-20,17.2-32.7,30
			c-12.7,12.8-19.8,19.8-22,20.8c-7.4,3.4-11.5,5.1-12.4,5c-0.3,0-0.4-0.5-0.3-1.3c0.2-2.9,3.1-10.1,9.1-21.2
			c2.3-4.3,5.9-10.8,10.6-19.5c3.1-6.8,4.6-10.2,7.8-17c2.7-5.7,4.2-9.9,4.4-12.5c0.5-6-0.9-10.7-4.3-14.1s-8.6-5.5-15.6-6
			c-7-0.5-14.7,1.2-22.8,5.3c-8.9,4.5-15.7,10.7-20.3,18.1c-4.6,7.4-7,13.8-7.2,19.1c-0.3,5.3,0.7,9.5,2.8,12.6
			c3.4,5.1,8.1,7.8,14.2,8.2c4.6,0.3,8.8-1,12.6-3.7c3.8-2.7,5.8-6.4,6.2-11c0.1-1,0-1.8-0.2-2.6C435.7,68.5,436,68.1,436.9,68.2z"
			/>
	</g>
	<g>
		<path class="st1" d="M524.8,86.7c-0.4,3-4.1,7.6-10.8,14c-8,7.5-14.4,11-19.3,10.4c-0.8-0.1-1.3-0.1-2.1-0.2
			c-2.3-0.3-3.9-1.7-5-4.1c-0.8-1.7-1.2-3.6-1-5.6c0.5-5.2,5.2-12.1,14.1-20.5c8.9-8.5,15.9-12.4,20.7-11.7c4.6,0.6,6.6,3.2,6,7.9
			c-0.2,1.2-1.2,3.2-1.3,4.6c0,0.2,0.9,0.5,2.5,0.7c1.6,0.2,7.7-1.5,7.7-1.5c0.1,0.1-10.2,3.1-11.4,4.9
			C524.8,85.7,524.9,86.3,524.8,86.7z M517,78.9c-1.3-0.9-7.8,2.5-14.2,8.8c-6.4,6.3-9.7,11-10,14.3c-0.4,3.3,0.5,5,2.6,5.3
			c3.8,0.4,8.9-2.4,15.6-8.4c6.7-6,11.1-12.1,10.6-13.4C521.3,84.8,518.6,80.1,517,78.9z"/>
	</g>
	<g>
		<path class="st1" d="M560.5,120.5c-0.4,0-1.4-0.1-2.8-0.3c-1.4-0.2-2.8-1-4.1-2.3c-1.3-1.3-1.8-2.9-1.5-4.6
			c0.3-1.8,0.9-3.7,1.9-5.7c1-2,2.1-4.7,2.1-4.7c-0.4-0.3-20.5,14.6-26.2,13.9c-3.6-0.5-5.4-3.1-5-7.4c0-0.3,0.1-0.6,0.1-0.9
			c0.5-3.7,8.9-14,8.9-14c0,0-5.9,4.3-8.9,6.7c-0.4,0.3-0.9,0.4-1.4,0.3c-0.4,0-0.5-0.3-0.4-0.7c0.1-0.4,0.5-1.1,1.5-2
			c8.4-7.4,12.7-11.1,21.3-18.4c2.7-2.2,5.3-3.2,7.7-2.8c2.4,0.4,3.5,1.3,3.3,2.9c-0.1,0.6-0.4,1.1-1.1,1.6
			c-3.9,2.7-9.3,7.3-15.7,13.9c-6.4,6.6-9.8,11.7-10.3,15.3c-0.2,1.5,0.2,2.4,1.3,2.5c3.7,0.5,9.5-2.5,17.6-8.4
			c2.8-2,8.2-6.7,16.2-13.8c8-7.1,13.2-10.5,15.4-10.1c3.2,0.5,4.6,2,4.2,4.4c-0.1,0.9-2.6,3-6.9,6.5c-6,4.9-10.7,9.3-13.9,12.6
			c-3.2,3.3-5,6.1-5.4,8.5c-0.4,2.3,0.1,3.6,1.4,3.8c0.6,0.1,1.3,0,2.2-0.2c6.4-1.6,14.7-6.4,24.7-14.4c0.6-0.5,1.2-0.7,1.7-0.6
			c0.5,0.1,0.7,0.4,0.7,1c-0.1,0.6-0.5,1.1-1.3,1.7c-4.5,3.6-9.7,7.2-15.5,10.7C566.6,118.6,562.6,120.4,560.5,120.5z"/>
	</g>
	<g>
		<path class="st1" d="M604,125.2c-2.8,1-6,1.1-9.7,0.5c-3.7-0.7-6.3-2.4-7.9-5.1c-1.5-2.7-3.1-12.3-3.1-12.3
			c-0.3-0.1-3.1,1.9-3.7,1.8c-0.4-0.1-0.6-0.4-0.5-1c0.1-0.6,0.5-1.1,0.9-1.4c3.5-2.7,9.3-7.2,17.5-12.6c7.8-4.9,11.7-7.3,19.6-12
			c5.7-3.4,9-5,9.9-4.9c2.9,0.6,4.1,1.9,3.7,3.9c-0.2,1-0.8,1.9-1.9,2.7c-1,0.8-1.8,1.5-2.3,1.9c-0.5,0.5-1.1,0.9-1.6,1.3
			c-2.1,2-4.8,7.5-8,15.4c-3.2,8-7.2,16.2-7.1,16.5c0.7,1.3,15.7-2.7,25.2-9.3c1-0.7,1.8-1,2.2-0.9c0.4,0.1,0.6,0.4,0.5,1
			c-0.1,0.6-0.7,1.2-1.6,2c-6.2,4.7-11.9,7.9-16.6,9.3c-2.8,0.8-6.5,1.2-10.8,1.2C606.8,124,605.8,124.4,604,125.2z M588.8,107.8
			c-0.5,2.9,0.1,5.5,1.7,7.6c1.6,2.2,3.7,3.5,6.1,3.9c2.4,0.4,4.5,0.2,5.9-0.4c1.8-0.7,4.4-4.2,7.4-10.8c3-6.6,5.2-12.5,6.6-17.7
			c0.5-1.7,0.8-2.5,1.4-4.2c-5.6,2.6-11.7,6.1-18.2,10.7c-6.5,4.6-10,7.8-10.5,9.5C589,106.9,588.9,107.3,588.8,107.8z"/>
	</g>
</g>
</svg>
